# Alias OBJ Model File
# Exported from SketchUp, (c) 2000-2012 Trimble Navigation Limited
# File units = millimeters

mtllib frei.mtl

g Mesh1 Model

usemtl wood1
v 2348.71 9.78682 2148.13
vt -1.29691 -0.082232
vn 0.052336 -0.99863 -0
v 2348.71 9.78682 2335.13
vt -1.29691 2.22045e-16
v 2161.96 -1.08287e-12 2335.13
vt -1.37914 2.22045e-16
v 2161.96 -1.08287e-12 2148.13
vt -1.37914 -0.082232
f 1/1/1 2/2/1 3/3/1 4/4/1 

vt 0.164464 -0.629273
vn 0.99863 0.052336 -0
v 2304.56 852.137 2148.13
vt 0.164464 -0.258347
v 2304.56 852.137 2335.13
vt 0.082232 -0.258347
vt 0.082232 -0.629273
f 1/5/2 5/6/2 6/7/2 2/8/2 

vt -0.164464 -0.258347
vn 0 0 -1
vt -0.164464 -0.629273
vt -0.082232 -0.629273
v 2114.34 908.753 2148.13
vt -0.082232 -0.229106
v 2202.26 710.362 2148.13
vt -0.116275 -0.318251
f 5/9/3 1/10/3 4/11/3 7/12/3 8/13/3 

vn -0.99863 -0.052336 -0
vt -1.11022e-15 -0.629273
v 2114.34 908.753 2335.13
vt -1.11022e-15 -0.229106
f 7/12/4 4/11/4 3/14/4 9/15/4 

vt 0.115166 -0.62841
vn 0 0 1
vt 0.0957528 -0.257993
v 2202.26 710.362 2335.13
vt 0.0507655 -0.320337
vt 0.0121032 -0.233096
vt 0.0330463 -0.632714
f 2/16/5 6/17/5 10/18/5 9/19/5 3/20/5 

vt 0.109195 0.18728
vn -0.810922 0.585155 -0
vt 0.109195 0.264161
vt 0.0269627 0.264161
vt 0.0269627 0.18728
f 10/21/6 6/22/6 5/23/6 8/24/6 

vt -1.94452 -0.644071
vn 0.914245 0.405162 -0
vt -1.94452 -0.739496
vt -1.86229 -0.739496
vt -1.86229 -0.644071
f 9/25/7 10/26/7 8/27/7 7/28/7 

g Mesh2 Model

v 3084.19 -178.448 -1208.85
vt 0.710098 -0.645169
vn 0 8.32667e-17 -1
v 2914.97 -209.202 -1208.85
vt 0.634462 -0.645169
v 2879.74 -15.377 -1208.85
vt 0.634462 -0.731798
v 3048.97 15.377 -1208.85
vt 0.710098 -0.731798
f 11/29/8 12/30/8 13/31/8 14/32/8 

vt -1.97265 1.26338
vn 0.178802 -0.983885 1.01332e-15
v 3084.19 -178.448 1570.48
vt -1.97265 0.0411891
v 2999.58 -193.825 1664.15
vt -1.93483 8.32667e-15
v 2914.97 -209.202 1477.38
vt -1.89701 0.0821284
vt -1.89701 1.26338
f 11/33/9 15/34/9 16/35/9 17/36/9 12/37/9 

v 3048.97 15.377 1570.48
vt -1.36307 0.0411891
vn 0.983885 0.178802 4.41312e-16
vt -1.27644 0.0411891
vt -1.27644 1.26338
vt -1.36307 1.26338
v 3048.97 15.377 -990.207
vt -1.36307 1.16723
v 3048.97 15.377 -409.243
vt -1.36307 0.91176
f 18/38/10 15/39/10 11/40/10 14/41/10 19/42/10 20/43/10 

vt -0.794728 0.321953
vn 0.724738 0.131707 0.676319
v 2964.36 8.88289e-14 1664.15
vt -0.801549 0.377453
vt -0.887532 0.366885
vt -0.88071 0.311385
f 18/44/11 21/45/11 16/46/11 15/47/11 

v 2879.74 -15.377 1477.38
vt 0.634462 0.0821284
vn -0.178802 0.983885 -9.18775e-16
vt 0.67228 1.28786e-14
vt 0.710098 0.0411891
vt 0.710098 0.91176
v 2879.74 -15.377 -399.326
vt 0.634462 0.907399
f 22/48/12 21/49/12 18/50/12 20/51/12 23/52/12 

vt -0.751639 -0.483564
vn -0.893689 -0.162411 0.41826
vt -0.758492 -0.393407
vt -0.844872 -0.399973
vt -0.838019 -0.49013
f 21/53/13 22/54/13 17/55/13 16/56/13 

vt 0.0138931 1.26338
vn -0.983885 -0.178802 -5.81853e-16
vt 0.0138931 0.0821284
vt 0.100523 0.0821284
vt 0.100523 0.907399
v 2879.74 -15.377 -980.289
vt 0.100523 1.16287
vt 0.100523 1.26338
f 12/57/14 17/58/14 22/59/14 23/60/14 24/61/14 13/62/14 

vn -0.178802 0.983885 8.19249e-17
vt 0.710098 1.16723
vt 0.634462 1.16287
f 20/51/15 19/63/15 24/64/15 23/52/15 

v 3913.75 172.534 -459.923
vt 1.08168 1.45794
vn 0.178802 -0.983885 -8.19249e-17
vt 0.694529 1.45794
vt 0.709235 1.20288
v 3419.06 82.6334 -1011.9
vt 0.874919 1.20288
v 3600.08 115.531 -857.789
vt 0.951791 1.2752
v 3649.98 124.599 -1025.43
vt 0.9783 1.20288
v 3880.9 166.565 -1038.96
vt 1.08168 1.20288
f 25/65/16 20/66/16 19/67/16 26/68/16 27/69/16 28/70/16 29/71/16 

usemtl freiburg2
vt 0.526792 0.34646
vn 0.0566364 0.0102926 0.998342
vt 0.99962 0.34646
v 3901.41 240.423 -459.923
vt 0.99962 0.383517
v 2072.46 -91.9551 -352.739
vt -0.00038011 0.383517
v 2084.8 -159.843 -352.739
vt -0.00038011 0.34646
vt 0.434265 0.34646
f 20/72/17 25/73/17 30/74/17 31/75/17 32/76/17 23/77/17 

usemtl wood1
vt 1.11202 0.917491
vn 0.982254 0.178506 -0.057564
vt 1.11202 1.17254
v 3868.57 234.453 -1038.96
vt 1.08168 1.17254
vt 1.08168 0.917491
f 25/78/18 29/79/18 33/80/18 30/81/18 

vn -0.0566364 -0.0102926 -0.998342
v 3637.64 192.487 -1025.43
vt 0.9783 1.17254
f 29/71/19 28/70/19 34/82/19 33/80/19 

usemtl freiburg2
v 3587.74 183.419 -857.789
vt -0.136602 1.16737
vn -0.941731 -0.171141 -0.289576
vt -0.131188 1.26127
vt -0.168183 1.26341
vt -0.173598 1.1695
f 35/83/20 34/84/20 28/85/20 27/86/20 

vt 0.99962 0.69501
vt 0.873361 0.69501
vt 0.840985 0.606695
v 3406.72 150.522 -1011.9
vt 0.747102 0.69501
v 2039.61 -97.9248 -931.777
vt -0.00038011 0.69501
f 33/87/15 34/88/15 35/89/15 36/90/15 37/91/15 31/75/15 30/74/15 

vt -2.13015 -1.06739
vn 0.631761 0.11481 -0.766614
vt -2.13757 -1.19607
vt -2.10057 -1.1982
vt -2.09315 -1.06952
f 36/92/21 35/93/21 27/94/21 26/95/21 

usemtl wood1
vt 0.262879 1.17254
vt 0.874919 1.17254
vt 0.633473 1.20288
v 2051.95 -165.813 -931.777
vt 0.262879 1.20288
f 37/96/19 36/97/19 26/68/19 19/67/19 24/98/19 38/99/19 

vt 0.634462 1.26338
vn -0.178802 0.983885 -1.66668e-15
vt 0.710098 1.26338
f 13/100/22 24/64/22 19/63/22 14/101/22 

vt 0.618767 1.45794
vt 0.262879 1.45794
f 38/99/16 24/98/16 23/102/16 32/103/16 

usemtl freiburg2
vt -0.693411 0.116557
vn -0.982254 -0.178506 0.057564
vt -1.0049 0.116557
vt -1.0049 0.0795005
vt -0.693411 0.0795005
f 38/104/23 32/105/23 31/106/23 37/107/23 

