# Alias OBJ Model File
# Exported from SketchUp, (c) 2000-2012 Trimble Navigation Limited
# File units = millimeters

mtllib frei2.mtl

g Mesh1 Model

usemtl stone1
v -1244.88 1964 -5217.74
vt 5.55112e-17 2.13627
vn 0 1 -0
v -1244.88 1964 -1611.18
vt 1.66533e-16 1.09581
v -411.885 1964 -1611.18
vt 0.240312 1.09581
v -411.885 1964 -3775.83
vt 0.240312 1.72029
v -411.885 1964 -4384.74
vt 0.240312 1.89596
v 82.9734 1964 -4384.74
vt 0.383074 1.89596
v 82.9734 1964 -5217.74
vt 0.383074 2.13627
f 1/1/1 2/2/1 3/3/1 4/4/1 5/5/1 6/6/1 7/7/1 

v -1244.88 0 -5217.74
vt -1.14613 0.631002
vn -1 1.04525e-16 1.33369e-17
v -1244.88 0 2187.26
vt 0.990139 0.631002
v -1244.88 352.309 2187.26
vt 0.990139 0.732639
v -1244.88 646.152 1938.34
vt 0.918328 0.81741
v -1244.88 901.081 1419.6
vt 0.768676 0.890955
v -1244.88 1400.09 1296.35
vt 0.733122 1.03491
v -1244.88 1400.09 821.355
vt 0.59609 1.03491
v -1244.88 1964 745.434
vt 0.574187 1.1976
v -1244.88 1964 -586.832
vt 0.189842 1.1976
v -1244.88 1508 -586.832
vt 0.189842 1.06604
v -1244.88 1508 -1485.24
vt -0.0693397 1.06604
vt -0.105674 1.1976
vt -1.14613 1.1976
f 8/8/2 9/9/2 10/10/2 11/11/2 12/12/2 13/13/2 14/14/2 15/15/2 16/16/2 17/17/2 18/18/2 2/19/2 1/20/2 

v 2425.95 -5.75457e-13 -5217.74
vt 1.059 2.13627
vn 7.5256e-17 1 -8.66754e-18
vt 5.55112e-17 0
v -411.885 0 2187.26
vt 0.240312 0
v -411.885 0 137.466
vt 0.240312 0.591344
v -411.885 -9.02389e-14 -3775.83
v -411.885 0 -4384.74
v 2425.95 0 -4384.74
vt 1.059 1.89596
f 19/21/3 8/1/3 9/22/3 20/23/3 21/24/3 22/4/3 23/5/3 24/25/3 

vt 0.718274 1.1976
vn 1.55596e-16 -1.83175e-16 -1
vt 0.3352 1.1976
v 337.962 1500.51 -5217.74
vt 0.261638 1.06388
v 867.127 1320.33 -5217.74
vt 0.108979 1.0119
v 1015.38 1011.02 -5217.74
vt 0.0662104 0.922672
v 1328.76 690.874 -5217.74
vt -0.0241975 0.830312
vt -0.340726 0.631002
vt 0.718274 0.631002
f 1/26/4 7/27/4 25/28/4 26/29/4 27/30/4 28/31/4 19/32/4 8/33/4 

vt 1.62409 1.11589
vn 0.87616 0.482021 4.31033e-17
v 337.962 1500.51 -4384.74
vt 1.62409 0.96328
vt 1.8644 0.96328
vt 1.8644 1.11589
f 6/34/5 29/35/5 25/36/5 7/37/5 

vt 0.240312 0.631002
vn -2.97679e-17 3.75147e-16 1
vt 1.059 0.631002
v 1328.76 690.874 -4384.74
vt 0.742471 0.830312
v 1015.38 1011.02 -4384.74
vt 0.652063 0.922672
v 867.127 1320.33 -4384.74
vt 0.609294 1.0119
vt 0.456636 1.06388
vt 0.383074 1.1976
vt 0.240312 1.1976
f 23/38/6 24/39/6 30/40/6 31/41/6 32/42/6 29/43/6 6/44/6 5/45/6 

vn 0 6.50428e-18 1
v -411.885 -1549 -4384.74
vt 0.240312 0.184131
v 2425.95 -1549 -4384.74
vt 1.059 0.184131
f 24/39/7 23/38/7 33/46/7 34/47/7 

vn 1 0 -0
vt 0.0646464 0.631002
v -411.885 -1549 -3775.83
vt 0.0646464 0.184131
f 23/38/8 22/48/8 35/49/8 33/46/8 

vt 0.0646464 1.1976
f 5/45/8 4/50/8 22/48/8 23/38/8 

usemtl stone4
vt -0.0196221 0.427879
vt 1.06134 0.427879
vt 1.06134 0.970394
vt 0.463407 0.970394
v -411.885 1508 -1485.24
vt 0.428617 0.844433
v -411.885 1508 -586.832
vt 0.18045 0.844433
v -411.885 1964 -586.832
vt 0.18045 0.970394
v -411.885 1964 137.466
vt -0.0196221 0.970394
f 21/51/8 22/52/8 4/53/8 3/54/8 36/55/8 37/56/8 38/57/8 39/58/8 

v -411.885 -1549 137.466
vt -0.0196221 0
vt 1.06134 0
f 40/59/8 35/60/8 22/52/8 21/51/8 

usemtl stone1
v -1244.88 -1549 -5217.74
vt 0.718274 2.13627
vn -7.77683e-17 -1 6.50428e-18
v 2425.95 -1549 -5217.74
vt -0.340726 2.13627
vt -0.340726 1.89596
vt 0.477962 1.89596
vt 0.477962 1.72029
vt 0.477962 0.591344
v -411.885 -1549 2187.26
vt 0.477962 0
v -1244.88 -1549 2187.26
vt 0.718274 0
f 41/61/9 42/62/9 34/63/9 33/64/9 35/65/9 40/66/9 43/67/9 44/68/9 

vn 7.86645e-16 -6.50428e-18 -1
vt -0.340726 0.184131
vt 0.718274 0.184131
f 8/33/10 19/32/10 42/69/10 41/70/10 

vt 1.8644 0.631002
vn 1 -7.77683e-17 5.37242e-32
vt 1.62409 0.631002
vt 1.62409 0.184131
vt 1.8644 0.184131
f 19/71/11 24/72/11 34/73/11 42/74/11 

vt 1.62409 0.412819
vn 0.532841 0.846216 -2.58471e-16
vt 1.62409 0.0387664
vt 1.8644 0.0387664
vt 1.8644 0.412819
f 30/75/12 24/76/12 19/77/12 28/78/12 

vt 1.62409 0.634527
vn 0.714617 0.699516 -7.83473e-16
vt 1.62409 0.505284
vt 1.8644 0.505284
vt 1.8644 0.634527
f 31/79/13 30/80/13 28/81/13 27/82/13 

vt 1.62409 0.866364
vn 0.901769 0.432219 -6.77446e-16
vt 1.62409 0.767412
vt 1.8644 0.767412
vt 1.8644 0.866364
f 32/83/14 31/84/14 27/85/14 26/86/14 

vt 1.62409 0.678238
vn 0.32233 0.946627 -7.89373e-16
vt 1.62409 0.516972
vt 1.8644 0.516972
vt 1.8644 0.678238
f 29/87/15 32/88/15 26/89/15 25/90/15 

vn -1 7.77683e-17 -0
vt -1.14613 0.184131
vt 0.990139 0.184131
f 9/9/16 8/8/16 41/91/16 44/92/16 

vt 5.55112e-17 0.631002
vt 5.55112e-17 0.184131
f 20/38/7 9/93/7 44/94/7 43/46/7 

v -411.885 352.309 2187.26
vt 0.240312 0.732639
vn 0 0 1
vt 1.66533e-16 0.732639
f 45/95/17 10/96/17 9/93/17 20/38/17 

vt 0.240312 0.300695
vn -2.24935e-18 0.646368 0.763026
v -411.885 646.152 1938.34
vt 0.240312 0.411793
vt 5.55112e-17 0.411793
vt 1.66533e-16 0.300695
f 45/97/18 46/98/18 11/99/18 10/100/18 

vt 0.806907 5.55112e-16
vn 1 4.10528e-17 4.17907e-17
vt 0.806907 0.591344
v -411.885 1964 745.434
vt 0.240312 0.415952
v -411.885 1400.09 821.355
vt 0.402995 0.394049
v -411.885 1400.09 1296.35
vt 0.402995 0.257016
v -411.885 901.081 1419.6
vt 0.546954 0.221463
vt 0.620498 0.0718102
vt 0.705269 4.44089e-16
f 20/101/19 21/102/19 39/24/19 47/103/19 48/104/19 49/105/19 50/106/19 46/107/19 45/108/19 

vt 0.0310905 0.591344
vt 0.0310905 0
f 43/67/8 40/66/8 21/109/8 20/110/8 

vt 0.240312 0.800297
vt 1.66533e-16 0.800297
vt 1.66533e-16 0.415952
f 38/111/1 16/112/1 15/113/1 47/103/1 39/24/1 

vt 0.477962 1.1976
vn 0 0 -1
vt 0.477962 1.06604
vt 0.718274 1.06604
f 38/114/20 37/115/20 17/116/20 16/26/20 

vt 0.240312 1.05948
vt 1.66533e-16 1.05948
f 37/111/1 36/117/1 18/118/1 17/112/1 

vt 0.240312 1.16442
vn 7.03532e-18 0.266229 0.96391
vt 0.240312 1.30089
vt 1.66533e-16 1.30089
vt 1.66533e-16 1.16442
f 36/119/21 3/120/21 2/121/21 18/122/21 

vt 0.240312 0.999685
vn 4.78139e-18 0.133429 0.991058
vt 0.240312 1.16384
vt 1.66533e-16 1.16384
vt 5.55112e-17 0.999685
f 48/123/22 47/124/22 15/125/22 14/126/22 

vt 0.240312 0.257016
vn 8.21631e-17 1 -0
vt 0.240312 0.394049
vt 0 0.394049
vt 0 0.257016
f 49/127/23 48/128/23 14/129/23 13/130/23 

vt 0.240312 0.785178
vn 1.02739e-16 0.239767 0.97083
vt 0.240312 0.933462
vt 0 0.933462
vt 0 0.785178
f 50/131/24 49/132/24 13/133/24 12/134/24 

vt 0.240312 0.211354
vn 1.11465e-16 0.897481 0.441053
vt 0.240312 0.378101
vt -5.55112e-17 0.378101
vt -1.11022e-16 0.211354
f 46/135/25 50/136/25 12/137/25 11/138/25 

g Mesh2 Model

v -1549.17 0 -916.878
vt 0.116776 0.849511
v -1798.41 0 -1847.06
vt -0.0221321 1.09011
v -2447.51 0 -1673.14
vt -0.190024 0.993174
v -2198.27 0 -742.952
vt -0.0511164 0.752578
f 51/139/1 52/140/1 53/141/1 54/142/1 

vt 0.808988 0.631002
vn 0.965926 0 -0.258819
vt 1.0868 0.631002
v -1798.41 640 -1847.06
vt 1.0868 0.815635
v -1549.17 640 -916.878
vt 0.808988 0.815635
f 51/143/26 52/144/26 55/145/26 56/146/26 

vt 1.2438 0.877654
vt 0.975448 0.80575
v -1549.17 -1549 -916.878
vt 1.09111 0.374106
v -1798.41 -1549 -1847.06
vt 1.35946 0.44601
f 52/147/26 51/148/26 57/149/26 58/150/26 

vt 0.266073 0.615674
vn 0.258819 0 0.965926
vt 0.0788137 0.565498
v -2198.27 -1549 -742.952
vt 0.194472 0.133853
vt 0.381732 0.184029
f 51/151/27 54/152/27 59/153/27 57/154/27 

vt -0.45575 0.631002
vt -0.261884 0.631002
vt -0.261884 0.815635
v -2198.27 640 -742.952
vt -0.45575 0.815635
f 54/155/27 51/156/27 56/157/27 60/158/27 

vt -0.261884 1.08085
vt -0.261884 1.35867
v -2447.51 640 -1673.14
vt -0.45575 1.35867
vt -0.45575 1.08085
f 56/159/1 55/160/1 61/161/1 60/162/1 

vt 0.980158 0.631002
vn -0.258819 0 -0.965926
vt 1.17402 0.631002
vt 1.17402 0.815635
vt 0.980158 0.815635
f 52/163/28 53/164/28 61/165/28 55/166/28 

vt 1.15504 0.853872
vt 0.967781 0.803696
vt 1.08344 0.372052
v -2447.51 -1549 -1673.14
vt 1.2707 0.422228
f 53/167/28 52/168/28 58/169/28 62/170/28 

vt 0.980158 1.35867
vn 0 -1 -0
vt 0.980158 1.08085
vt 1.17402 1.08085
vt 1.17402 1.35867
f 58/171/29 57/172/29 59/173/29 62/174/29 

vt 0.258406 0.613619
vn -0.965926 0 0.258819
vt -0.0099436 0.541715
vt 0.105715 0.110071
vt 0.374065 0.181975
f 54/175/30 53/176/30 62/177/30 59/178/30 

vt -0.368531 0.631002
vt -0.0907147 0.631002
vt -0.0907147 0.815635
vt -0.368531 0.815635
f 53/179/30 54/180/30 60/181/30 61/182/30 

