# Alias OBJ Model File
# Exported from SketchUp, (c) 2000-2012 Trimble Navigation Limited
# File units = millimeters

mtllib tomb_2.mtl

g Mesh1 Model

usemtl stone1
v 1877.89 -1.77058e-15 -571.485
vt -1.7356 -0.444829
vn 0 -1 -0
v 1877.89 0 -248.485
vt -1.73598 -0.603653
v 509.891 0 -248.485
vt -1.06331 -0.605261
v 509.891 -1.77058e-15 -571.485
vt -1.06293 -0.446437
f 1/1/1 2/2/1 3/3/1 4/4/1 

v 1877.89 1812.67 -248.485
vt -0.688565 0.162983
vn 1 0 -0
v 1877.89 1695.93 -248.485
vt -0.688703 0.105579
v 1877.89 980.758 -496.09
vt -0.567792 -0.246373
v 1877.89 675.568 -248.485
vt -0.689902 -0.396149
vt -0.690696 -0.728337
vt -0.531872 -0.728716
v 1877.89 1812.67 -571.485
vt -0.529741 0.162603
f 5/5/2 6/6/2 7/7/2 8/8/2 2/9/2 1/10/2 9/11/2 

usemtl TombStone2
vt 0.983919 -0.378279
vn -1.61509e-16 7.1127e-17 1
vt 0.983919 0.117935
v 1697.58 1172.1 -248.485
vt 0.851476 0.48264
vt 0.983919 0.867404
vt 0.983919 0.953153
v 1719.56 1971 -248.485
vt 0.867626 1.06945
v 1293.89 1971 -248.485
vt 0.554964 1.06945
v 1093.89 1971 -248.485
vt 0.408061 1.06945
v 794.423 1971 -248.485
vt 0.188098 1.06945
v 856.83 1821.5 -248.485
vt 0.233937 0.959639
v 771.691 1496.47 -248.485
vt 0.171401 0.720897
v 509.891 1322.54 -248.485
vt -0.0208944 0.593144
vt -0.0208944 -0.378279
f 2/12/3 8/13/3 10/14/3 6/15/3 5/16/3 11/17/3 12/18/3 13/19/3 14/20/3 15/21/3 16/22/3 17/23/3 3/24/3 

usemtl stone1
vt -0.154884 -0.219758
vn 0.866383 0.314628 0.387801
vt -0.319396 -0.152883
vt -0.231316 -0.397245
f 7/25/4 10/26/4 8/27/4

vt -0.725306 -0.164362
vn 0.688921 -0.237141 0.684947
f 10/28/5 7/7/5 6/6/5

vt -0.690487 -0.640913
vn 0.707107 0.707107 -0
vt -0.690751 -0.751013
vt -0.531926 -0.751393
v 1719.56 1971 -571.485
vt -0.531663 -0.641293
f 11/29/6 5/30/6 9/31/6 18/32/6 

vt -1.73627 -0.725837
vn -1.12602e-16 3.40721e-17 -1
vt -1.0636 -0.727445
v 509.891 1322.54 -571.485
vt -1.06205 -0.0771313
v 771.691 1496.47 -571.485
vt -1.19057 0.00870001
v 856.83 1821.5 -571.485
vt -1.23206 0.168625
v 794.423 1971 -571.485
vt -1.20119 0.242061
v 1093.89 1971 -571.485
vt -1.34845 0.242413
v 1293.89 1971 -571.485
vt -1.44679 0.242648
vt -1.6561 0.243149
vt -1.73414 0.165483
f 1/33/7 4/34/7 19/35/7 20/36/7 21/37/7 22/38/7 23/39/7 24/40/7 18/41/7 9/42/7 

vt -0.903223 -0.077511
vn -1 0 -0
vt -0.904777 -0.727825
f 17/43/8 19/35/8 4/34/8 3/44/8 

vt -1.27632 -0.158235
vn -0.553368 0.832937 -0
vt -1.27595 -0.00368436
vt -1.43478 -0.00330465
vt -1.43515 -0.157856
f 17/45/9 16/46/9 20/47/9 19/48/9 

vt -1.27575 0.0810389
vn -0.967364 0.25339 1.14218e-15
vt -1.27536 0.246255
vt -1.43418 0.246635
vt -1.43458 0.0814186
f 16/49/10 15/50/10 21/51/10 20/52/10 

vt -1.27609 -0.0627031
vn -0.92282 -0.385231 2.43614e-18
vt -1.2759 0.0169548
vt -1.43473 0.0173345
vt -1.43492 -0.0623234
f 15/53/11 14/54/11 22/55/11 21/56/11 

vt -0.274325 -0.448322
vn 0 1 -0
vt -0.421578 -0.44797
vt -0.421958 -0.606795
vt -0.274704 -0.607147
f 23/57/12 22/58/12 14/59/12 13/60/12 

vt -1.35047 -0.604575
vt -1.35009 -0.445751
vt -1.44844 -0.445515
vt -1.44881 -0.60434
f 13/61/1 23/62/1 24/63/1 12/64/1 

vt -0.932747 0.241419
v 1093.89 2408.36 -248.485
vt -0.932233 0.456477
v 1093.89 2408.36 -571.485
vt -1.09106 0.456857
vt -1.09157 0.241799
f 13/65/8 25/66/8 26/67/8 23/68/8 

vt -0.174336 0.239606
vn 0 0 1
v 1293.89 2408.36 -248.485
vt -0.173822 0.454664
v 1564.89 2408.36 -248.485
vt -0.0405672 0.454345
v 1564.89 2587.36 -248.485
vt -0.0403568 0.542362
v 1293.89 2587.36 -248.485
vt -0.173612 0.542681
v 1293.89 2938 -248.485
vt -0.1732 0.715096
v 1093.89 2938 -248.485
vt -0.271543 0.715331
v 1093.89 2587.36 -248.485
vt -0.271955 0.542916
v 822.891 2587.36 -248.485
vt -0.40521 0.543235
v 822.891 2408.36 -248.485
vt -0.40542 0.455217
vt -0.272165 0.454899
vt -0.27268 0.239841
f 12/69/13 27/70/13 28/71/13 29/72/13 30/73/13 31/74/13 32/75/13 33/76/13 34/77/13 35/78/13 25/79/13 13/80/13 

vt -0.529555 0.240456
v 1293.89 2408.36 -571.485
vt -0.529041 0.455513
vt -0.687865 0.455893
vt -0.688379 0.240835
f 24/81/2 36/82/2 27/83/2 12/84/2 

vn 0 3.73274e-16 -1
vt -1.34793 0.457471
v 822.891 2408.36 -571.485
vt -1.21468 0.457152
v 822.891 2587.36 -571.485
vt -1.21447 0.545169
v 1093.89 2587.36 -571.485
vt -1.34772 0.545488
v 1093.89 2938 -571.485
vt -1.34731 0.717903
v 1293.89 2938 -571.485
vt -1.44565 0.718138
v 1293.89 2587.36 -571.485
vt -1.44607 0.545723
v 1564.89 2587.36 -571.485
vt -1.57932 0.546042
v 1564.89 2408.36 -571.485
vt -1.57953 0.458024
vt -1.44628 0.457706
f 24/40/14 23/39/14 26/85/14 37/86/14 38/87/14 39/88/14 40/89/14 41/90/14 42/91/14 43/92/14 44/93/14 36/94/14 

vt -1.21722 -0.604893
vt -1.21684 -0.446069
f 26/62/1 25/61/1 35/95/1 37/96/1 

vt -1.09085 0.544874
vt -0.932022 0.544494
f 38/97/8 37/67/8 35/66/8 34/98/8 

vt -0.40758 -0.448004
vt -0.407959 -0.606828
f 33/60/12 39/57/12 38/99/12 34/100/12 

vt -1.09043 0.717288
vt -0.93161 0.716909
f 40/101/8 39/97/8 33/98/8 32/102/8 

vt -0.176361 -0.607382
vt -0.175982 -0.448558
f 40/57/12 32/60/12 31/103/12 41/104/12 

vt -0.687243 0.716324
vt -0.687655 0.54391
vt -0.52883 0.54353
vt -0.528418 0.715945
f 31/105/2 30/106/2 42/107/2 41/108/2 

vt -0.0431063 -0.6077
vt -0.0427266 -0.448876
f 42/104/12 30/103/12 29/109/12 43/110/12 

f 29/106/2 28/83/2 44/82/2 43/107/2 

vt -1.58169 -0.445197
vt -1.58207 -0.604021
f 27/64/1 36/63/1 44/111/1 28/112/1 

vt 0.0329487 -0.607882
vt 0.0333284 -0.449058
f 11/113/12 18/114/12 24/104/12 12/103/12 

