# Alias OBJ Model File
# Exported from SketchUp, (c) 2000-2012 Trimble Navigation Limited
# File units = millimeters

mtllib tomb_gont2.mtl

g Mesh1 Model

usemtl stone1
v 3259.13 -1166 301.074
vt 0.701635 1.52964
vn -8.70815e-32 -1 1.8389e-16
v 2795.52 -1166 -501.926
vt 0.371317 0.960656
v 3259.13 -1166 -1304.93
vt 0.698911 0.3901
v 4186.35 -1166 -1304.93
vt 1.35682 0.388528
v 4649.96 -1166 -501.926
vt 1.68714 0.95751
v 4186.35 -1166 301.074
vt 1.35955 1.52807
v 3994.64 -1166 301.074
vt 1.22352 1.52839
v 3450.84 -1166 301.074
vt 0.837665 1.52931
f 1/1/1 2/2/1 3/3/1 4/4/1 5/5/1 6/6/1 7/7/1 8/8/1 

v 3259.13 0 301.074
vt 0.0457007 2.35855
vn -0.866025 0 0.5
v 2795.52 0 -501.926
vt 0.376019 2.92753
vt -0.339486 3.34291
vt -0.669804 2.77393
f 9/9/2 10/10/2 2/11/2 1/12/2 

v 4094.64 0 142.225
vt 1.29672 2.46827
vn 0 1 -0
v 3994.64 0 142.225
vt 1.22577 2.46844
v 3994.64 0 301.074
vt 1.2255 2.35573
v 4186.35 0 301.074
vt 1.36153 2.3554
v 4649.96 0 -501.926
vt 1.69184 2.92438
v 4186.35 0 -1304.93
vt 1.36425 3.49494
v 3259.13 0 -1304.93
vt 0.706338 3.49651
vt 0.703613 2.35697
v 3450.84 0 301.074
vt 0.839643 2.35665
v 3450.84 0 142.225
vt 0.839912 2.46936
v 3350.84 0 142.225
vt 0.768957 2.46953
v 2978.94 0 -501.926
vt 0.506167 2.92722
v 3350.84 0 -1146.08
vt 0.771142 3.38365
v 4094.64 0 -1146.08
vt 1.29891 3.38238
v 4466.54 0 -501.926
vt 1.5617 2.9247
f 11/13/3 12/14/3 13/15/3 14/16/3 15/17/3 16/18/3 17/19/3 10/10/3 9/20/3 18/21/3 19/22/3 20/23/3 21/24/3 22/25/3 23/26/3 24/27/3 

v 4094.64 170 142.225
vt 1.29725 2.68981
vn -2.25597e-16 0 1
v 3994.64 170 142.225
vt 1.2263 2.68998
vt 1.22601 2.56935
vt 1.29696 2.56918
f 25/28/4 26/29/4 12/30/4 11/31/4 

v 3350.84 170 -1146.08
v 2978.94 170 -501.926
v 3350.84 170 142.225
v 3450.84 170 142.225
v 4466.54 170 -501.926
v 4094.64 170 -1146.08
f 27/25/3 28/24/3 29/23/3 30/22/3 26/14/3 25/13/3 31/27/3 32/26/3 

vt -3.50144 2.58066
vn -0.866025 0 -0.5
vt -2.97367 2.57939
vt -2.97338 2.70002
vt -3.50115 2.70128
f 22/32/5 21/33/5 28/34/5 27/35/5 

vt -0.859966 2.57434
vt -0.332201 2.57308
vt -0.331913 2.6937
vt -0.859677 2.69496
f 21/36/2 20/37/2 29/38/2 28/39/2 

vt 0.769198 2.57045
vn 0 0 1
vt 0.840153 2.57028
vt 0.840442 2.6909
vt 0.769487 2.69107
f 20/40/6 19/41/6 30/42/6 29/43/6 

vn -1.24456e-16 0 1
f 19/41/7 12/30/7 26/29/7 30/42/7 

vn 1 0 -0
vt 1.1133 2.56962
f 12/30/8 26/29/8 13/44/8

usemtl Statuya_text
vt 0 0.967674
vn 3.67644e-17 0.682738 0.730663
vt 0 0.359176
v 3450.84 -100.345 394.838
vt 0 0
v 3994.64 -100.345 394.838
vt 1 -1.11022e-16
vt 1 0.359176
vt 1 0.967674
f 30/45/9 18/46/9 33/47/9 34/48/9 13/49/9 26/50/9 

usemtl stone1
vn -1 0 -0
vt 0.952865 2.57001
f 19/41/10 18/51/10 30/42/10

vt -0.7381 2.65629
v 3450.84 -1166 765.354
vt -0.903498 2.37139
v 3450.84 -251.345 765.354
vt -0.342228 2.04554
v 3450.84 -251.345 394.838
vt -0.210234 2.27291
vt -0.117574 2.21912
vt -0.0225955 2.24091
f 8/52/10 35/53/10 36/54/10 37/55/10 33/56/10 18/57/10 

vn 0 -1 -0
v 3994.64 -1166 765.354
vt 1.22431 1.85782
v 3903.16 -1166 856.838
vt 1.15955 1.92289
v 3542.32 -1166 856.838
vt 0.90352 1.9235
vt 0.838452 1.85874
f 8/8/11 7/7/11 38/58/11 39/59/11 40/60/11 35/61/11 

v 3994.64 -251.345 765.354
vt 0.89564 2.17817
vt 0.894089 1.52918
vt 1.1588 2.28469
v 3994.64 -251.345 394.838
vt 1.15854 2.17754
f 41/62/8 38/63/8 7/7/8 13/15/8 34/64/8 42/65/8 

vt 0.00985376 1.74492
vn 0.707107 0 0.707107
vt 0.0114054 2.39391
v 3903.16 -251.345 856.838
vt -0.0803944 2.39413
vt -0.081946 1.74514
f 38/66/12 41/67/12 43/68/12 39/69/12 

vt 1.22534 2.2892
vn 6.22808e-17 1 8.69298e-18
vt 1.15964 1.96154
vt 1.22471 2.0263
f 42/70/13 43/71/13 41/72/13

v 3809.34 -251.345 554.589
vt 1.09359 2.17616
f 42/70/13 44/73/13 43/71/13

v 3722.74 -251.345 504.589
vt 1.03222 2.21178
f 42/70/13 45/74/13 44/73/13

vt 0.839483 2.29012
f 37/75/13 45/74/13 42/70/13

v 3636.14 -251.345 554.589
vt 0.970691 2.17645
f 37/75/13 46/76/13 45/74/13

v 3542.32 -251.345 856.838
vt 0.903612 1.96215
f 37/75/13 47/77/13 46/76/13

vt 0.838855 2.02722
f 47/77/13 37/75/13 36/78/13

vt 0.596812 1.74352
vn -0.707107 0 0.707107
vt 0.598364 2.39251
vt 0.506564 2.39273
vt 0.505013 1.74374
f 40/79/14 47/80/14 36/81/14 35/82/14 

vt 0.903088 1.74279
vt 1.15912 1.74217
vt 1.16067 2.39117
vt 0.904639 2.39178
f 40/83/6 39/84/6 43/85/6 47/86/6 

v 3636.14 -251.345 654.589
vt 0.970521 2.1055
f 43/71/13 48/87/13 47/77/13

v 3722.74 -251.345 704.589
vt 1.03189 2.06987
f 48/87/13 43/71/13 49/88/13

v 3809.34 -251.345 654.589
vt 1.09342 2.1052
f 49/88/13 43/71/13 50/89/13

f 50/89/13 43/71/13 44/73/13

usemtl stone3
vt -8.94604 -11.4001
vt -9.02099 -11.5299
vt -8.94604 -11.6597
vt -8.79615 -11.6597
vt -8.7212 -11.5299
vt -8.79615 -11.4001
f 48/90/3 49/91/3 50/92/3 44/93/3 45/94/3 46/95/3 

vt -3.01981e-14 -0.239829
vn -0.5 0 0.866025
vt 0.149893 -0.239829
v 3722.74 -198.345 704.589
vt 0.149893 -0.160386
v 3636.14 -198.345 654.589
vt -3.01981e-14 -0.160386
f 48/96/15 49/97/15 51/98/15 52/99/15 

vn 0.5 0 0.866025
vt 0.299787 -0.239829
v 3809.34 -198.345 654.589
vt 0.299787 -0.160386
f 49/97/16 50/100/16 53/101/16 51/98/16 

vt -8.94604 -0.239829
vt -8.79615 -0.239829
v 3809.34 -198.345 554.589
vt -8.79615 -0.160386
vt -8.94604 -0.160386
f 50/102/8 44/103/8 54/104/8 53/105/8 

vn 0.5 0 -0.866025
vt -8.64626 -0.239829
v 3722.74 -198.345 504.589
vt -8.64626 -0.160386
f 44/103/17 45/106/17 55/107/17 54/104/17 

vt -6.02472 -0.239829
vn -0.5 0 -0.866025
vt -5.87483 -0.239829
v 3636.14 -198.345 554.589
vt -5.87483 -0.160386
vt -6.02472 -0.160386
f 45/108/18 46/109/18 56/110/18 55/111/18 

vt -5.72493 -0.239829
vt -5.72493 -0.160386
f 46/109/10 48/112/10 52/113/10 56/110/10 

usemtl stone1
f 46/76/13 47/77/13 48/87/13

usemtl stone3
vt -9.02099 -0.108977
vt -8.79615 0.0208349
vt -8.94604 0.0208349
f 51/114/3 56/115/3 52/116/3

v 3688.44 -198.345 624.39
vt -8.90078 -0.0575672
f 56/115/3 51/114/3 57/117/3

v 3722.74 -198.345 644.192
vt -8.93046 -0.108977
f 57/117/3 51/114/3 58/118/3

vt -8.94604 -0.238788
f 58/118/3 51/114/3 53/119/3

v 3757.04 -198.345 624.39
vt -8.90078 -0.160386
f 58/118/3 53/119/3 59/120/3

v 3757.04 -198.345 584.787
vt -8.84141 -0.160386
f 59/120/3 53/119/3 60/121/3

vt -8.79615 -0.238788
f 54/122/3 60/121/3 53/119/3

vt -8.7212 -0.108977
f 55/123/3 60/121/3 54/122/3

v 3722.74 -198.345 564.986
vt -8.81173 -0.108977
f 55/123/3 61/124/3 60/121/3

v 3688.44 -198.345 584.787
vt -8.84141 -0.0575672
f 55/123/3 62/125/3 61/124/3

f 56/115/3 62/125/3 55/123/3

f 62/125/3 56/115/3 57/117/3

vt -13.1806 -0.160386
vt -13.1213 -0.160386
v 3688.44 -91.3455 624.39
vt -13.1213 -2.33147e-15
v 3688.44 -91.3455 584.787
vt -13.1806 -2.33147e-15
f 62/126/10 57/127/10 63/128/10 64/129/10 

vt 0.0452655 -0.160386
vn -0.5 6.25619e-18 0.866025
vt 0.104628 -0.160386
v 3722.74 -91.3455 644.192
vt 0.104628 2.77556e-17
vt 0.0452655 2.77556e-17
f 57/130/19 58/131/19 65/132/19 63/133/19 

vn 0.5 6.25619e-18 0.866025
vt 0.16399 -0.160386
v 3757.04 -91.3455 624.39
vt 0.16399 -2.77556e-17
vt 0.104628 -2.77556e-17
f 58/131/20 59/134/20 66/135/20 65/136/20 

v 3757.04 -91.3455 584.787
vt -8.84141 0
vt -8.90078 0
f 59/120/8 60/121/8 67/137/8 66/138/8 

vt -13.2994 -0.160386
vn 0.5 6.25619e-18 -0.866025
vt -13.24 -0.160386
v 3722.74 -91.3455 564.986
vt -13.24 3.10862e-15
vt -13.2994 3.10862e-15
f 60/139/21 61/140/21 68/141/21 67/142/21 

vn -0.5 6.25619e-18 -0.866025
vt -13.1806 2.77556e-17
vt -13.24 2.77556e-17
f 61/140/22 62/126/22 64/143/22 68/144/22 

vt 0.0155843 -0.129812
v 3722.74 -91.3455 504.589
vt 8.88178e-16 -0.259623
vt 0.0452655 -0.181221
f 64/145/11 69/146/11 68/147/11

v 3636.14 -91.3455 654.589
vt 0 -2.22045e-16
f 70/148/11 69/146/11 64/145/11

v 3636.14 -91.3455 554.589
vt -0.0749467 -0.129812
f 69/146/11 70/148/11 71/149/11

vt -0.149893 4.44089e-16
vt -1.11022e-16 4.44089e-16
v 3636.14 86.6545 654.589
vt -1.11022e-16 0.26681
v 3636.14 86.6545 554.589
vt -0.149893 0.26681
f 71/150/10 70/151/10 72/152/10 73/153/10 

vt -1.68754e-14 0
v 3722.74 -91.3455 704.589
vt 0.149893 0
v 3722.74 86.6545 704.589
vt 0.149893 0.26681
vt -1.68754e-14 0.26681
f 70/154/15 74/155/15 75/156/15 72/157/15 

vt 0.0452655 -0.0784021
vt 0.149893 -2.22045e-16
f 70/148/11 63/158/11 74/159/11

f 63/158/11 70/148/11 64/145/11

vt 0.104628 -0.0784021
f 74/159/11 63/158/11 65/160/11

vt 0.134309 -0.129812
f 74/159/11 65/160/11 66/161/11

v 3809.34 -91.3455 654.589
vt 0.22484 -0.129812
f 74/159/11 66/161/11 76/162/11

v 3809.34 -91.3455 554.589
vt 0.149893 -0.259623
f 76/162/11 66/161/11 77/163/11

vt 0.104628 -0.181221
f 67/164/11 77/163/11 66/161/11

f 68/147/11 77/163/11 67/164/11

f 68/147/11 69/146/11 77/163/11

vt -8.79615 1.38778e-16
vt -8.64626 1.38778e-16
v 3722.74 86.6545 504.589
vt -8.64626 0.26681
v 3809.34 86.6545 554.589
vt -8.79615 0.26681
f 77/165/17 69/166/17 78/167/17 79/168/17 

vt -0.299787 8.32667e-17
vt -0.149893 8.32667e-17
vt -0.299787 0.26681
f 69/169/18 71/170/18 73/153/18 78/171/18 

vt -0.0749467 0.396622
v 3664.84 86.6545 571.157
vt -0.025276 0.396622
vt 2.66454e-15 0.526433
f 73/172/3 80/173/3 78/174/3

v 3664.84 86.6545 638.02
vt 0.0248354 0.309826
f 80/173/3 73/172/3 81/175/3

vt 2.66454e-15 0.26681
f 72/176/3 81/175/3 73/172/3

f 81/175/3 72/176/3 75/156/3

v 3722.74 86.6545 671.451
vt 0.125058 0.309826
f 81/175/3 75/156/3 82/177/3

v 3809.34 86.6545 654.589
vt 0.22484 0.396622
f 82/177/3 75/156/3 83/178/3

vt 0.299787 0
vt 0.299787 0.26681
f 74/155/16 76/179/16 83/180/16 75/156/16 

vt -8.94604 0
vt -8.79615 0
vt -8.94604 0.26681
f 76/181/8 77/182/8 79/168/8 83/183/8 

vt 0.149893 0.526433
v 3780.64 86.6545 571.157
vt 0.125058 0.483417
f 79/184/3 84/185/3 83/178/3

f 78/174/3 84/185/3 79/184/3

v 3722.74 86.6545 537.726
vt 0.0248354 0.483417
f 78/174/3 85/186/3 84/185/3

f 78/174/3 80/173/3 85/186/3

vt -1.41055 0.26681
vt -1.51077 0.26681
v 3664.84 -33.3455 571.157
vt -1.51077 0.0869382
v 3722.74 -33.3455 537.726
vt -1.41055 0.0869382
f 85/187/16 80/188/16 86/189/16 87/190/16 

vt -14.5956 0.26681
vt -14.6958 0.26681
v 3664.84 -33.3455 638.02
vt -14.6958 0.0869382
vt -14.5956 0.0869382
f 80/191/8 81/192/8 88/193/8 86/194/8 

vt -14.796 0.26681
v 3722.74 -33.3455 671.451
vt -14.796 0.0869382
f 81/192/17 82/195/17 89/196/17 88/193/17 

vt 0.325503 0.26681
v 3780.64 86.6545 638.02
vt 0.225281 0.26681
v 3780.64 -33.3455 638.02
vt 0.225281 0.0869382
vt 0.325503 0.0869382
f 82/197/18 90/198/18 91/199/18 89/200/18 

vt 0.175169 0.396622
f 82/177/3 83/178/3 90/201/3

f 90/201/3 83/178/3 84/185/3

vt 0.125058 0.26681
v 3780.64 -33.3455 571.157
vt 0.125058 0.0869382
f 90/198/10 84/202/10 92/203/10 91/199/10 

vt 0.0248354 0.26681
vt 0.0248354 0.0869382
f 84/202/15 85/204/15 87/205/15 92/203/15 

vt 0.125058 -0.0866526
vt 0.175169 0.000142769
vt -0.025276 0.000142769
vt 0.0248354 -0.0866526
f 89/206/3 91/207/3 92/203/3 87/205/3 86/208/3 88/209/3 

usemtl stone1
vt 1.22559 2.39634
vn 8.29705e-17 -8.69298e-18 1
vt 0.83974 2.39726
f 34/210/23 33/211/23 37/75/23 42/70/23 

vn 2.35351e-16 -1.04873e-33 1
f 13/15/24 7/7/24 6/6/24 14/16/24 

vt 2.01944 2.35383
vn 0.866025 0 0.5
vt 2.01746 1.52649
f 15/212/25 14/16/25 6/6/25 5/213/25 

vn 0.866025 0 -0.5
vt 2.40933 3.33634
vt 2.08173 3.90689
f 16/18/26 15/17/26 5/214/26 4/215/26 

vt 1.03666 4.0655
vn 0 0 -1
vt 1.75414 4.47745
f 17/216/27 16/18/27 4/215/27 3/217/27 

vt -0.00916711 3.91189
f 10/10/5 17/19/5 3/218/5 2/11/5 

f 1/12/6 8/52/6 18/57/6 9/9/6 

vt -4.51375 2.58308
vn 4.85285e-16 0 -1
vt -3.98598 2.58181
vt -3.98569 2.70244
vt -4.51346 2.7037
f 23/219/28 22/220/28 27/221/28 32/222/28 

vt -2.88458 2.57918
vt -2.35682 2.57792
vt -2.35653 2.69854
vt -2.88429 2.69981
f 24/223/26 23/224/26 32/225/26 31/226/26 

vt -0.24311 2.57287
vt 0.284655 2.5716
vt 0.284943 2.69223
vt -0.242822 2.69349
f 11/227/25 24/228/25 31/229/25 25/230/25 

