# Alias OBJ Model File
# Exported from SketchUp, (c) 2000-2012 Trimble Navigation Limited
# File units = millimeters

mtllib tomb_4.mtl

g Mesh1 Model

usemtl stone1
v 294.039 0 -551.097
vt -1.8237 -0.216035
vn 0 -1 -0
v 1356.04 0 -551.097
vt -2.57725 -0.214234
v 1356.04 0 -255.097
vt -2.57775 -0.424261
v 294.039 0 -255.097
vt -1.82421 -0.426062
f 1/1/1 2/2/1 3/3/1 4/4/1 

vt -2.57818 -0.605265
vn 0 0 -1
vt -1.82464 -0.607067
v 294.039 164.552 -551.097
vt -1.82436 -0.490309
v 379.097 277.441 -551.097
vt -1.88452 -0.410064
v 379.097 433.441 -551.097
vt -1.88426 -0.299374
v 294.039 691.8 -551.097
vt -1.82347 -0.1162
v 294.039 1609 -551.097
vt -1.82191 0.5346
v 651.566 1410.37 -551.097
vt -2.07593 0.394266
v 895.566 1410.37 -551.097
vt -2.24906 0.39468
v 1130.33 1298.63 -551.097
vt -2.41583 0.315793
v 1356.04 1093.26 -551.097
vt -2.57633 0.170456
f 2/5/2 1/6/2 5/7/2 6/8/2 7/9/2 8/10/2 9/11/2 10/12/2 11/13/2 12/14/2 13/15/2 

v 294.039 164.552 -255.097
vt -1.79673 -0.490375
vn -1 0 -0
vt -2.00676 -0.489873
vt -2.00703 -0.606631
vt -1.79701 -0.607133
f 14/16/3 5/17/3 1/18/3 4/19/3 

vt -1.79648 -0.388332
vn -0.79867 0.601769 -0
v 379.097 277.441 -255.097
vt -1.79624 -0.288039
vt -2.00627 -0.287537
vt -2.00651 -0.387829
f 14/20/4 15/21/4 6/22/4 5/23/4 

usemtl TombStone3
vt 0.0818269 -0.0294106
vn 0 0 1
vt 0.00156953 -0.135929
v 1356.04 164.552 -255.097
vt 1.00363 -0.135929
v 1356.04 1093.26 -255.097
vt 1.00363 0.740362
v 1130.33 1298.63 -255.097
vt 0.790661 0.93414
v 895.566 1410.37 -255.097
vt 0.569147 1.03957
v 651.566 1410.37 -255.097
vt 0.338919 1.03957
v 294.039 1609 -255.097
vt 0.00156953 1.227
v 294.039 691.8 -255.097
vt 0.00156953 0.361562
v 379.097 433.441 -255.097
vt 0.0818269 0.117785
f 15/24/5 14/25/5 16/26/5 17/27/5 18/28/5 19/29/5 20/30/5 21/31/5 22/32/5 23/33/5 

usemtl stone1
vt -1.435 -0.607998
vt -1.43472 -0.491241
vt -2.18826 -0.489439
vt -2.18854 -0.606197
f 3/34/5 16/35/5 14/36/5 4/37/5 

vt -1.22497 -0.608501
vn 1 0 -0
vt -1.22312 0.167221
vt -1.43314 0.167723
f 2/38/6 13/39/6 17/40/6 16/35/6 3/34/6 

vt -1.43493 -0.581093
vn 0.672993 0.739649 -0
vt -1.43545 -0.797617
vt -1.22543 -0.798119
vt -1.22491 -0.581595
f 18/41/7 17/42/7 13/43/7 12/44/7 

vt -1.43534 -0.751685
vn 0.429772 0.902937 -0
vt -1.43578 -0.936168
vt -1.22576 -0.93667
vt -1.22532 -0.752187
f 19/45/8 18/46/8 12/47/8 11/48/8 

vt -1.15325 -0.427667
vn 0 1 -0
vt -0.980121 -0.42808
vt -0.979619 -0.218053
vt -1.15275 -0.21764
f 20/49/9 19/50/9 11/51/9 10/52/9 

vt -1.43411 -0.23592
vn 0.485656 0.87415 -0
vt -1.4348 -0.526126
vt -1.22478 -0.526629
vt -1.22408 -0.236422
f 21/53/10 20/54/10 10/55/10 9/56/10 

vt -2.00431 0.535036
vt -2.00586 -0.115764
vt -1.79583 -0.116266
vt -1.79428 0.534534
f 9/57/3 8/58/3 22/59/3 21/60/3 

vt -1.79651 -0.399125
vn -0.949848 -0.312713 -0
vt -1.79605 -0.206127
vt -2.00608 -0.205625
vt -2.00654 -0.398623
f 23/61/11 22/62/11 8/63/11 7/64/11 

vt -1.79654 -0.410275
vt -1.79627 -0.299585
vt -2.0063 -0.299083
vt -2.00656 -0.409772
f 15/65/3 23/66/3 7/67/3 6/68/3 

