# Alias OBJ Model File
# Exported from SketchUp, (c) 2000-2012 Trimble Navigation Limited
# File units = millimeters

mtllib castle1.mtl

g Mesh1 Model

usemtl stone1
v 2069.34 3429 -2541.53
vt -0.894406 0.798674
vn 0 -1 -0
v 2514.98 3429 -1769.65
vt -1.06206 0.508295
v 1996.52 3429 -871.654
vt -0.867011 0.170467
v 959.602 3429 -871.654
vt -0.47692 0.170467
v 441.142 3429 -1769.65
vt -0.281875 0.508295
v 886.782 3429 -2541.53
vt -0.449525 0.798674
v 959.602 3429 -2667.65
vt -0.47692 0.846124
v 1996.52 3429 -2667.65
vt -0.867011 0.846124
f 1/1/1 2/2/1 3/3/1 4/4/1 5/5/1 6/6/1 7/7/1 8/8/1 

v 2514.98 1153 -1769.65
vt -0.0124343 0.27631
vn 0.866025 5.81178e-18 -0.5
v 2069.34 1153 -2541.53
vt 0.322866 0.27631
v 2069.34 -1364 -2541.53
vt 0.322866 -0.670587
v 1996.52 -1364 -2667.65
vt 0.377656 -0.670587
vt 0.377656 1.13254
vt 0.322866 1.13254
vt -0.0124343 1.13254
f 9/9/2 10/10/2 11/11/2 12/12/2 8/13/2 1/14/2 2/15/2 

v 4126.86 1153 -626.526
vt 1.43661 0.0782498
vn 0 1 -0
v 4306.99 1153 -730.526
vt 1.50438 0.117375
v 4306.99 1153 -941.526
vt 1.50438 0.196753
v 4306.99 1153 -1141.53
vt 1.50438 0.271993
v 4306.99 1153 -1341.53
vt 1.50438 0.347233
v 4306.99 1153 -1541.53
vt 1.50438 0.422473
v 4306.99 1153 -1741.53
vt 1.50438 0.497714
v 4306.99 1153 -1941.53
vt 1.50438 0.572954
v 4306.99 1153 -2141.53
vt 1.50438 0.648194
v 4306.99 1153 -2341.53
vt 1.50438 0.723434
v 4306.99 1153 -2541.53
vt 1.50438 0.798674
vt 0.662572 0.798674
vt 0.830222 0.508295
v 1996.52 1153 -871.654
vt 0.635177 0.170467
v 959.602 1153 -871.654
vt 0.245086 0.170467
v 441.142 1153 -1769.65
vt 0.0500408 0.508295
v 886.782 1153 -2541.53
vt 0.217691 0.798674
v 308.125 1153 -2541.53
vt 0 0.798674
v 308.125 1153 -1040.53
vt 0 0.233997
v 846.793 1153 -729.526
vt 0.202647 0.116998
v 846.793 1153 -574.026
vt 0.202647 0.0584992
v 4126.86 1153 -574.026
vt 1.43661 0.0584992
f 13/16/3 14/17/3 15/18/3 16/19/3 17/20/3 18/21/3 19/22/3 20/23/3 21/24/3 22/25/3 23/26/3 10/27/3 9/28/3 24/29/3 25/30/3 26/31/3 27/32/3 28/33/3 29/34/3 30/35/3 31/36/3 32/37/3 

v 4487.13 1782 -834.526
vt -1.73479 0.51294
vn -0.5 0 -0.866025
v 4487.13 1243 -834.526
vt -1.73479 0.310168
v 4306.99 1243 -730.526
vt -1.65654 0.310168
vt -1.65654 0.27631
vt -1.57829 0.27631
v 4126.86 1782 -626.526
vt -1.57829 0.51294
f 33/38/4 34/39/4 35/40/4 14/41/4 13/42/4 36/43/4 

v 4847.39 1782 -626.526
vt -1.57734 0.51294
vn 0.5 0 -0.866025
v 4847.39 -1364 -626.526
vt -1.57734 -0.670587
v 4487.13 -1364 -834.526
vt -1.42085 -0.670587
vt -1.42085 0.310168
vt -1.42085 0.51294
f 37/44/5 38/45/5 39/46/5 34/47/5 33/48/5 

v 4847.39 1782 -210.526
vt -0.0367171 0.51294
vn 1 0 -0
v 4847.39 -1364 -210.526
vt -0.0367171 -0.670587
vt 0.119782 -0.670587
vt 0.119782 0.51294
f 40/49/6 41/50/6 38/51/6 37/52/6 

v 4487.13 1782 -2.5256
vt 1.34646 0.51294
vn 0.5 0 0.866025
v 4487.13 -1364 -2.5256
vt 1.34646 -0.670587
vt 1.50296 -0.670587
vt 1.50296 0.51294
f 42/53/7 43/54/7 41/55/7 40/56/7 

v 4126.86 1782 -210.526
vt 1.18901 0.51294
vn -0.5 0 0.866025
v 4126.86 -1364 -210.526
vt 1.18901 -0.670587
vt 1.34551 -0.670587
vt 1.34551 0.51294
f 44/57/8 45/58/8 43/59/8 42/60/8 

vt -0.351616 0.51294
vn -1 0 -0
vt -0.351616 0.27631
vt -0.331866 0.27631
v 4126.86 1243 -574.026
vt -0.331866 0.310168
v 4126.86 1243 -418.526
vt -0.273367 0.310168
v 4126.86 -1364 -418.526
vt -0.273367 -0.670587
vt -0.195117 -0.670587
vt -0.195117 0.51294
v 4126.86 1782 -418.526
vt -0.273367 0.51294
f 36/61/9 13/62/9 32/63/9 46/64/9 47/65/9 48/66/9 45/67/9 44/68/9 49/69/9 

vt -1.66844 0.27631
vn -5.77738e-16 0 -1
vt -0.434481 0.27631
v 846.793 1243 -574.026
vt -0.434481 0.310168
v 1046.79 1243 -574.026
vt -0.509721 0.310168
v 1046.79 1323 -574.026
vt -0.509721 0.340264
v 1246.79 1323 -574.026
vt -0.584962 0.340264
v 1246.79 1243 -574.026
vt -0.584962 0.310168
v 1446.79 1243 -574.026
vt -0.660202 0.310168
v 1446.79 1323 -574.026
vt -0.660202 0.340264
v 1646.79 1323 -574.026
vt -0.735442 0.340264
v 1646.79 1243 -574.026
vt -0.735442 0.310168
v 1846.79 1243 -574.026
vt -0.810682 0.310168
v 1846.79 1323 -574.026
vt -0.810682 0.340264
v 2046.79 1323 -574.026
vt -0.885922 0.340264
v 2046.79 1243 -574.026
vt -0.885922 0.310168
v 2246.79 1243 -574.026
vt -0.961162 0.310168
v 2246.79 1323 -574.026
vt -0.961162 0.340264
v 2446.79 1323 -574.026
vt -1.0364 0.340264
v 2446.79 1243 -574.026
vt -1.0364 0.310168
v 2646.79 1243 -574.026
vt -1.11164 0.310168
v 2646.79 1323 -574.026
vt -1.11164 0.340264
v 2846.79 1323 -574.026
vt -1.18688 0.340264
v 2846.79 1243 -574.026
vt -1.18688 0.310168
v 3046.79 1243 -574.026
vt -1.26212 0.310168
v 3046.79 1323 -574.026
vt -1.26212 0.340264
v 3246.79 1323 -574.026
vt -1.33736 0.340264
v 3246.79 1243 -574.026
vt -1.33736 0.310168
v 3446.79 1243 -574.026
vt -1.4126 0.310168
v 3446.79 1323 -574.026
vt -1.4126 0.340264
v 3646.79 1323 -574.026
vt -1.48784 0.340264
v 3646.79 1243 -574.026
vt -1.48784 0.310168
v 3846.79 1243 -574.026
vt -1.56308 0.310168
v 3846.79 1323 -574.026
vt -1.56308 0.340264
v 4046.79 1323 -574.026
vt -1.63832 0.340264
v 4046.79 1243 -574.026
vt -1.63832 0.310168
vt -1.66844 0.310168
f 32/70/10 31/71/10 50/72/10 51/73/10 52/74/10 53/75/10 54/76/10 55/77/10 56/78/10 57/79/10 58/80/10 59/81/10 60/82/10 61/83/10 62/84/10 63/85/10 64/86/10 65/87/10 66/88/10 67/89/10 68/90/10 69/91/10 70/92/10 71/93/10 72/94/10 73/95/10 74/96/10 75/97/10 76/98/10 77/99/10 78/100/10 79/101/10 80/102/10 81/103/10 82/104/10 46/105/10 

v 846.793 2458 -729.526
vt 0.158531 0.767252
vn 1 4.86758e-18 -2.25556e-16
v 846.793 2458 -418.526
vt 0.0415326 0.767252
v 846.793 2458 -107.526
vt -0.0754658 0.767252
v 846.793 -1364 -107.526
vt -0.0754658 -0.670587
v 846.793 -1364 -418.526
vt 0.0415326 -0.670587
v 846.793 1243 -418.526
vt 0.0415326 0.310168
vt 0.100032 0.310168
vt 0.100032 0.27631
vt 0.158531 0.27631
f 83/106/11 84/107/11 85/108/11 86/109/11 87/110/11 88/111/11 50/112/11 31/113/11 30/114/11 

v 308.125 2458 -1040.53
vt -0.231834 0.233997
vt -0.434481 0.116998
vt -0.434481 0
vt -0.434481 -0.116998
v 308.125 2458 203.474
vt -0.231834 -0.233997
v -230.542 2458 -107.526
vt -0.0291868 -0.116998
v -230.542 2458 -729.526
vt -0.0291868 0.116998
f 89/115/1 83/116/1 84/117/1 85/118/1 90/119/1 91/120/1 92/121/1 

vt -0.254578 0.767252
vt -0.254578 0.27631
vt -0.0205809 0.27631
vt -0.0205809 0.767252
f 83/122/5 30/123/5 29/124/5 89/125/5 

v 308.125 -1364 -1040.53
vt -0.412027 -0.670587
vn -0.5 2.53573e-18 -0.866025
v -230.542 -1364 -729.526
vt -0.178031 -0.670587
vt -0.178031 0.767252
vt -0.412027 0.767252
vt -0.412027 0.27631
f 93/126/12 94/127/12 92/128/12 89/129/12 29/130/12 

vt 1.43661 -0.670587
vn -3.80772e-32 -1 3.60276e-32
vt 0.202647 -0.670587
vt 0.202647 -0.553589
v 308.125 -1364 203.474
vt 1.38778e-17 -0.436591
v -230.542 -1364 -107.526
vt -0.202647 -0.553589
vt -0.202647 -0.787586
vt -1.38778e-17 -0.904584
v 308.125 -1364 -2541.53
vt -1.38778e-17 -1.46926
v 886.782 -1364 -2541.53
vt 0.217691 -1.46926
v 959.602 -1364 -2667.65
vt 0.245086 -1.51671
vt 0.635177 -1.51671
vt 0.662572 -1.46926
v 4487.13 -1364 -2541.53
vt 1.57214 -1.46926
vt 1.57214 -0.827087
vt 1.70768 -0.748837
vt 1.70768 -0.592338
vt 1.57214 -0.514088
vt 1.43661 -0.592338
f 48/131/13 87/132/13 86/133/13 95/134/13 96/135/13 94/136/13 93/137/13 97/138/13 98/139/13 99/140/13 12/141/13 11/142/13 100/143/13 39/144/13 38/145/13 41/146/13 43/147/13 45/148/13 

vt 0.202647 0.310168
vn 0 0 1
vt 1.43661 0.310168
v 4046.79 1243 -418.526
vt 1.40649 0.310168
v 4046.79 1323 -418.526
vt 1.40649 0.340264
v 3846.79 1323 -418.526
vt 1.33125 0.340264
v 3846.79 1243 -418.526
vt 1.33125 0.310168
v 3646.79 1243 -418.526
vt 1.25601 0.310168
v 3646.79 1323 -418.526
vt 1.25601 0.340264
v 3446.79 1323 -418.526
vt 1.18077 0.340264
v 3446.79 1243 -418.526
vt 1.18077 0.310168
v 3246.79 1243 -418.526
vt 1.10553 0.310168
v 3246.79 1323 -418.526
vt 1.10553 0.340264
v 3046.79 1323 -418.526
vt 1.03029 0.340264
v 3046.79 1243 -418.526
vt 1.03029 0.310168
v 2846.79 1243 -418.526
vt 0.955049 0.310168
v 2846.79 1323 -418.526
vt 0.955049 0.340264
v 2646.79 1323 -418.526
vt 0.879809 0.340264
v 2646.79 1243 -418.526
vt 0.879809 0.310168
v 2446.79 1243 -418.526
vt 0.804568 0.310168
v 2446.79 1323 -418.526
vt 0.804568 0.340264
v 2246.79 1323 -418.526
vt 0.729328 0.340264
v 2246.79 1243 -418.526
vt 0.729328 0.310168
v 2046.79 1243 -418.526
vt 0.654088 0.310168
v 2046.79 1323 -418.526
vt 0.654088 0.340264
v 1846.79 1323 -418.526
vt 0.578848 0.340264
v 1846.79 1243 -418.526
vt 0.578848 0.310168
v 1646.79 1243 -418.526
vt 0.503608 0.310168
v 1646.79 1323 -418.526
vt 0.503608 0.340264
v 1446.79 1323 -418.526
vt 0.428368 0.340264
v 1446.79 1243 -418.526
vt 0.428368 0.310168
v 1246.79 1243 -418.526
vt 0.353128 0.310168
v 1246.79 1323 -418.526
vt 0.353128 0.340264
v 1046.79 1323 -418.526
vt 0.277887 0.340264
v 1046.79 1243 -418.526
vt 0.277887 0.310168
f 88/149/14 87/132/14 48/131/14 47/150/14 101/151/14 102/152/14 103/153/14 104/154/14 105/155/14 106/156/14 107/157/14 108/158/14 109/159/14 110/160/14 111/161/14 112/162/14 113/163/14 114/164/14 115/165/14 116/166/14 117/167/14 118/168/14 119/169/14 120/170/14 121/171/14 122/172/14 123/173/14 124/174/14 125/175/14 126/176/14 127/177/14 128/178/14 129/179/14 130/180/14 131/181/14 132/182/14 

vt 1.40649 0.0584992
vt 1.40649 0
vt 1.43661 0
f 46/37/3 82/183/3 101/184/3 47/185/3 

vt 0.100032 0.340264
vt 0.0415326 0.340264
f 81/186/6 102/187/6 101/111/6 82/112/6 

vt 1.33125 0
vt 1.33125 0.0584992
f 103/188/3 102/184/3 81/183/3 80/189/3 

vt -0.273367 0.340264
vt -0.331866 0.340264
f 103/190/9 80/191/9 79/64/9 104/65/9 

vt 1.25601 0
vt 1.25601 0.0584992
f 105/192/3 104/188/3 79/189/3 78/193/3 

f 77/186/6 106/187/6 105/111/6 78/112/6 

vt 1.18077 0
vt 1.18077 0.0584992
f 107/194/3 106/192/3 77/193/3 76/195/3 

f 107/190/9 76/191/9 75/64/9 108/65/9 

vt 1.10553 0
vt 1.10553 0.0584992
f 109/196/3 108/194/3 75/195/3 74/197/3 

f 73/186/6 110/187/6 109/111/6 74/112/6 

vt 1.03029 0
vt 1.03029 0.0584992
f 111/198/3 110/196/3 73/197/3 72/199/3 

f 111/190/9 72/191/9 71/64/9 112/65/9 

vt 0.955049 0
vt 0.955049 0.0584992
f 113/200/3 112/198/3 71/199/3 70/201/3 

f 69/186/6 114/187/6 113/111/6 70/112/6 

vt 0.879809 0
vt 0.879809 0.0584992
f 115/202/3 114/200/3 69/201/3 68/203/3 

f 115/190/9 68/191/9 67/64/9 116/65/9 

vt 0.804568 0
vt 0.804568 0.0584992
f 117/204/3 116/202/3 67/203/3 66/205/3 

f 65/186/6 118/187/6 117/111/6 66/112/6 

vt 0.729328 0
vt 0.729328 0.0584992
f 119/206/3 118/204/3 65/205/3 64/207/3 

f 119/190/9 64/191/9 63/64/9 120/65/9 

vt 0.654088 0
vt 0.654088 0.0584992
f 121/208/3 120/206/3 63/207/3 62/209/3 

f 61/186/6 122/187/6 121/111/6 62/112/6 

vt 0.578848 0
vt 0.578848 0.0584992
f 123/210/3 122/208/3 61/209/3 60/211/3 

f 123/190/9 60/191/9 59/64/9 124/65/9 

vt 0.503608 0
vt 0.503608 0.0584992
f 125/212/3 124/210/3 59/211/3 58/213/3 

f 57/186/6 126/187/6 125/111/6 58/112/6 

vt 0.428368 0
vt 0.428368 0.0584992
f 127/214/3 126/212/3 57/213/3 56/215/3 

f 127/190/9 56/191/9 55/64/9 128/65/9 

vt 0.353128 0
vt 0.353128 0.0584992
f 129/216/3 128/214/3 55/215/3 54/217/3 

f 53/186/6 130/187/6 129/111/6 54/112/6 

vt 0.277887 0
vt 0.277887 0.0584992
f 131/218/3 130/216/3 53/217/3 52/219/3 

f 131/190/9 52/191/9 51/64/9 132/65/9 

vt 0.202647 0
f 88/220/3 132/218/3 51/219/3 50/36/3 

vt -0.0538035 -0.670587
vt 0.180193 -0.670587
vt 0.180193 0.767252
vt -0.0538035 0.767252
f 95/221/7 86/222/7 85/223/7 90/224/7 

vt 0.180193 0.64353
vn 0.459568 0.393939 0.795996
v 372.766 3564 -381.206
vt 0.0772347 1.09621
v 308.125 3564 -343.886
vt 0.0491551 1.09621
vt -0.0538035 0.64353
f 85/225/15 133/226/15 134/227/15 90/228/15 

vt -0.0754658 0.566983
vn 0.919137 0.393939 -0
vt 0.0415326 0.566983
v 372.766 3564 -418.526
vt 0.0415326 1.01967
vt 0.0274928 1.01967
f 85/229/16 84/230/16 135/231/16 133/232/16 

vn 0.919137 0.393939 -3.71095e-16
vt 0.158531 0.566983
v 372.766 3564 -455.846
vt 0.0555724 1.01967
f 84/230/17 83/233/17 136/234/17 135/231/17 

vt -0.0205809 0.536099
vn 0.459568 0.393939 -0.795996
v 308.125 3564 -493.166
vt -0.123539 0.988783
vt -0.151619 0.988783
vt -0.254578 0.536099
f 89/235/18 137/236/18 136/237/18 83/238/18 

vt -0.178031 0.581763
vn -0.459568 0.393939 -0.795996
v 243.485 3564 -455.846
vt -0.280989 1.03445
vt -0.309069 1.03445
vt -0.412027 0.581763
f 92/239/19 138/240/19 137/241/19 89/242/19 

v 243.485 3564 -381.206
vt -0.259327 1.11099
vn -0.919137 0.393939 5.58219e-16
vt -0.287406 1.11099
vt -0.390365 0.658311
vt -0.156368 0.658311
f 139/243/20 138/244/20 92/245/20 91/246/20 

vt 6.66134e-16 0.233997
vt -0.202647 0.116998
vt -0.202647 -0.116998
vt 6.66134e-16 -0.233997
vt 0.202647 -0.116998
vt 0.202647 4.44089e-16
f 136/35/3 137/247/3 138/248/3 139/249/3 134/250/3 133/251/3 135/252/3 

vt 0.0227437 0.689195
vn -0.459568 0.393939 0.795996
vt -0.0802149 1.14188
vt -0.108295 1.14188
vt -0.211253 0.689195
f 90/253/21 134/254/21 139/255/21 91/256/21 

vt -0.211253 -0.670587
vt 0.0227437 -0.670587
vt 0.0227437 0.767252
vt -0.211253 0.767252
f 96/257/8 95/258/8 90/259/8 91/260/8 

vt -0.390365 -0.670587
vn -1 0 5.80315e-16
vt -0.156368 -0.670587
vt -0.156368 0.767252
vt -0.390365 0.767252
f 94/261/22 96/262/22 91/263/22 92/264/22 

vt -1.07204 0.27631
vt -1.07204 -0.670587
vt -0.507364 -0.670587
vt -0.507364 0.27631
f 28/265/9 97/266/9 93/267/9 29/268/9 

vt -0.449525 0.27631
vn 0 0 -1
vt -0.449525 -0.670587
vt -0.231834 -0.670587
vt -0.231834 0.27631
f 27/269/23 98/270/23 97/271/23 28/272/23 

vt -1.11075 -0.670587
vn -0.866025 -5.81178e-18 -0.5
vt -1.11075 0.27631
vt -0.775448 0.27631
vt -0.775448 1.13254
vt -1.11075 1.13254
vt -1.16554 1.13254
vt -1.16554 -0.670587
f 98/273/24 27/274/24 26/275/24 5/276/24 6/277/24 7/278/24 99/279/24 

vt -0.60949 1.13254
vn -0.866025 0 0.5
vt -0.60949 0.27631
vt -0.2194 0.27631
vt -0.2194 1.13254
f 5/280/25 26/281/25 25/282/25 4/283/25 

vt 0.245086 1.13254
vn 1.74052e-16 0 1
vt 0.245086 0.27631
vt 0.635177 0.27631
vt 0.635177 1.13254
f 4/284/26 25/285/26 24/286/26 3/287/26 

vt 0.543614 1.13254
vn 0.866025 0 0.5
vt 0.543614 0.27631
vt 0.933705 0.27631
vt 0.933705 1.13254
f 3/288/27 24/289/27 9/290/27 2/291/27 

vt 0.543614 0.741693
vn 0.760133 0.479164 0.438863
vt 0.933705 0.741693
v 1592.12 4893 -1769.65
vt 0.760114 1.36918
v 1535.09 4893 -1670.87
vt 0.717204 1.36918
f 3/292/28 2/293/28 140/294/28 141/295/28 

vt -0.0124343 0.422692
vn 0.760133 0.479164 -0.438863
vt 0.322866 0.422692
vt 0.377656 0.422692
v 1535.09 4893 -1868.43
vt 0.204066 1.05017
v 1543.1 4893 -1854.56
vt 0.198039 1.05017
vt 0.161156 1.05017
f 2/296/29 1/297/29 8/298/29 142/299/29 143/300/29 140/301/29 

vt -0.47692 0.493934
vn -2.32403e-16 0.479164 -0.877726
v 1421.03 4893 -1868.43
vt -0.65051 1.12142
vt -0.69342 1.12142
vt -0.867011 0.493934
f 7/302/30 144/303/30 142/304/30 8/305/30 

v 1364 4893 -1769.65
vt -0.949038 1.51166
vn -0.760133 0.479164 -0.438863
v 1413.02 4893 -1854.56
vt -0.985921 1.51166
vt -0.991948 1.51166
vt -1.16554 0.884176
vt -1.11075 0.884176
vt -0.775448 0.884176
f 145/306/31 146/307/31 144/308/31 7/309/31 6/310/31 5/311/31 

vt 0.635177 0.846124
vt 0.245086 0.846124
v 1421.03 4893 -1670.87
f 140/28/3 143/27/3 142/312/3 144/313/3 146/32/3 145/31/3 147/30/3 141/29/3 

vt -0.39299 1.83066
vn -0.760133 0.479164 0.438863
vt -0.4359 1.83066
vt -0.60949 1.20318
vt -0.2194 1.20318
f 147/314/32 145/315/32 5/316/32 4/317/32 

vt 0.635177 1.13194
vn 1.98608e-16 0.479164 0.877726
vt 0.461586 1.75942
vt 0.418676 1.75942
vt 0.245086 1.13194
f 3/318/33 141/319/33 147/320/33 4/321/33 

vt -0.867011 1.13254
vn -3.48103e-16 0 -1
vt -0.867011 -0.670587
vt -0.47692 -0.670587
vt -0.47692 1.13254
f 8/322/34 12/323/34 99/324/34 7/325/34 

v 4487.13 1243 -2541.53
vt -1.80398 0.310168
vt -1.80398 -0.670587
vt -0.894406 -0.670587
vt -0.894406 0.27631
vt -1.73621 0.27631
v 4306.99 1243 -2541.53
vt -1.73621 0.310168
f 148/326/23 100/327/23 11/328/23 10/329/23 23/330/23 149/331/23 

vt 0.198032 0.310168
vt 0.198032 -0.670587
vt 0.840207 -0.670587
vt 0.840207 0.310168
v 4487.13 1243 -2341.53
vt 0.764967 0.310168
v 4487.13 1323 -2341.53
vt 0.764967 0.340264
v 4487.13 1323 -2141.53
vt 0.689727 0.340264
v 4487.13 1243 -2141.53
vt 0.689727 0.310168
v 4487.13 1243 -1941.53
vt 0.614486 0.310168
v 4487.13 1323 -1941.53
vt 0.614486 0.340264
v 4487.13 1323 -1741.53
vt 0.539246 0.340264
v 4487.13 1243 -1741.53
vt 0.539246 0.310168
v 4487.13 1243 -1541.53
vt 0.464006 0.310168
v 4487.13 1323 -1541.53
vt 0.464006 0.340264
v 4487.13 1323 -1341.53
vt 0.388766 0.340264
v 4487.13 1243 -1341.53
vt 0.388766 0.310168
v 4487.13 1243 -1141.53
vt 0.313526 0.310168
v 4487.13 1323 -1141.53
vt 0.313526 0.340264
v 4487.13 1323 -941.526
vt 0.238286 0.340264
v 4487.13 1243 -941.526
vt 0.238286 0.310168
f 34/332/6 39/333/6 100/334/6 148/335/6 150/336/6 151/337/6 152/338/6 153/339/6 154/340/6 155/341/6 156/342/6 157/343/6 158/344/6 159/345/6 160/346/6 161/347/6 162/348/6 163/349/6 164/350/6 165/351/6 

v 4306.99 1243 -2341.53
vt 1.57214 0.723434
vt 1.57214 0.798674
f 149/26/3 166/25/3 150/352/3 148/353/3 

vt -0.996801 0.27631
vt -0.996801 0.310168
vt -1.07204 0.310168
f 23/265/9 22/354/9 166/355/9 149/356/9 

vt -0.921561 0.27631
v 4306.99 1243 -2141.53
vt -0.921561 0.310168
v 4306.99 1323 -2141.53
vt -0.921561 0.340264
v 4306.99 1323 -2341.53
vt -0.996801 0.340264
f 22/354/9 21/357/9 167/358/9 168/359/9 169/360/9 166/355/9 

vt -0.84632 0.27631
v 4306.99 1243 -1941.53
vt -0.84632 0.310168
f 21/357/9 20/361/9 170/362/9 167/358/9 

vt -0.77108 0.27631
v 4306.99 1243 -1741.53
vt -0.77108 0.310168
v 4306.99 1323 -1741.53
vt -0.77108 0.340264
v 4306.99 1323 -1941.53
vt -0.84632 0.340264
f 20/361/9 19/363/9 171/364/9 172/365/9 173/366/9 170/362/9 

vt -0.69584 0.27631
v 4306.99 1243 -1541.53
vt -0.69584 0.310168
f 19/363/9 18/367/9 174/368/9 171/364/9 

vt -0.6206 0.27631
v 4306.99 1243 -1341.53
vt -0.6206 0.310168
v 4306.99 1323 -1341.53
vt -0.6206 0.340264
v 4306.99 1323 -1541.53
vt -0.69584 0.340264
f 18/367/9 17/369/9 175/370/9 176/371/9 177/372/9 174/368/9 

vt -0.54536 0.27631
v 4306.99 1243 -1141.53
vt -0.54536 0.310168
f 17/369/9 16/373/9 178/374/9 175/370/9 

vt -0.47012 0.27631
v 4306.99 1243 -941.526
vt -0.47012 0.310168
v 4306.99 1323 -941.526
vt -0.47012 0.340264
v 4306.99 1323 -1141.53
vt -0.54536 0.340264
f 16/373/9 15/375/9 179/376/9 180/377/9 181/378/9 178/374/9 

vt -0.390741 0.27631
vt -0.390741 0.310168
f 15/375/9 14/379/9 35/380/9 179/376/9 

vt 1.57214 0.1565
vt 1.57214 0.196753
f 34/381/3 165/382/3 179/18/3 35/17/3 

vt 1.50438 0.340264
vt 1.50438 0.310168
vt 1.57214 0.310168
vt 1.57214 0.340264
f 180/383/14 179/384/14 165/385/14 164/386/14 

vt 1.57214 0.271993
f 181/19/3 180/18/3 164/382/3 163/387/3 

vt -1.80398 0.340264
vt -1.73621 0.340264
f 163/388/23 162/326/23 178/331/23 181/389/23 

vt 1.57214 0.347233
f 175/20/3 178/19/3 162/387/3 161/390/3 

f 176/383/14 175/384/14 161/385/14 160/386/14 

vt 1.57214 0.422473
f 177/21/3 176/20/3 160/390/3 159/391/3 

f 159/388/23 158/326/23 174/331/23 177/389/23 

vt 1.57214 0.497714
f 171/22/3 174/21/3 158/391/3 157/392/3 

f 172/383/14 171/384/14 157/385/14 156/386/14 

vt 1.57214 0.572954
f 173/23/3 172/22/3 156/392/3 155/393/3 

f 155/388/23 154/326/23 170/331/23 173/389/23 

vt 1.57214 0.648194
f 167/24/3 170/23/3 154/393/3 153/394/3 

f 168/383/14 167/384/14 153/385/14 152/386/14 

f 169/25/3 168/24/3 152/394/3 151/352/3 

f 151/388/23 150/326/23 166/331/23 169/389/23 

vt -1.66844 -5.55112e-17
vt -1.66844 0.0782498
vt -1.80398 0.1565
vt -1.93951 0.0782498
vt -1.93951 -0.0782498
vt -1.80398 -0.1565
vt -1.66844 -0.0782498
f 49/395/1 36/396/1 33/397/1 37/398/1 40/399/1 42/400/1 44/401/1 

v 4436.69 2678 -418.526
vt -0.273367 1.34016
vn -0.945092 0.326805 3.23286e-16
v 4436.69 2678 -447.646
vt -0.284322 1.34016
vt -0.351616 0.983504
vt -0.273367 0.983504
f 182/402/35 183/403/35 36/404/35 49/405/35 

vt 1.43661 -2.22045e-16
v 4436.69 2678 -389.406
vt 1.43661 -0.0782498
v 4487.13 2678 -360.286
vt 1.57214 -0.1565
v 4537.56 2678 -389.406
vt 1.70768 -0.0782498
v 4537.56 2678 -447.646
vt 1.70768 0.0782498
v 4487.13 2678 -476.766
f 183/16/3 182/406/3 184/407/3 185/408/3 186/409/3 187/410/3 188/381/3 

vt -0.262412 1.34016
vn -0.945092 0.326805 -0
vt -0.195117 0.983504
f 184/411/36 182/402/36 49/405/36 44/412/36 

vt 1.34551 0.752232
vn -0.472546 0.326805 0.818474
vt 1.27822 1.10889
vt 1.25631 1.10889
vt 1.18901 0.752232
f 42/413/37 185/414/37 184/415/37 44/416/37 

vt 1.50296 0.200566
vn 0.472546 0.326805 0.818474
vt 1.43567 0.557225
vt 1.41376 0.557225
vt 1.34646 0.200566
f 40/417/38 186/418/38 185/419/38 42/420/38 

vt -0.0367171 -0.119829
vn 0.945092 0.326805 1.69809e-17
vt 0.119782 -0.119829
vt 0.0524876 0.236831
vt 0.0305776 0.236831
f 40/421/39 37/422/39 187/423/39 186/424/39 

vt -1.42085 0.111443
vn 0.472546 0.326805 -0.818474
vt -1.48814 0.468102
vt -1.51005 0.468102
vt -1.57734 0.111443
f 33/425/40 188/426/40 187/427/40 37/428/40 

vt -1.57829 0.663109
vn -0.472546 0.326805 -0.818474
vt -1.64559 1.01977
vt -1.6675 1.01977
vt -1.73479 0.663109
f 36/429/41 183/430/41 188/431/41 33/432/41 

