# Alias OBJ Model File
# Exported from SketchUp, (c) 2000-2012 Trimble Navigation Limited
# File units = millimeters

mtllib wand1.mtl

g Mesh1 Model

usemtl wood1
v 935.082 0 -1197.85
vt 0 -1.38778e-17
vn 0 -1 -0
v 714.246 0 -1325.35
vt -0.0159552 -0.0276351
v 714.246 0 -1580.35
vt -2.77556e-17 -0.0552703
v 935.082 0 -1707.85
vt 0.0319103 -0.0552703
v 1155.92 0 -1580.35
vt 0.0478655 -0.0276351
v 1155.92 0 -1325.35
vt 0.0319103 -2.77556e-17
f 1/1/1 2/2/1 3/3/1 4/4/1 5/5/1 6/6/1 

vt -3.46945e-18 0.00400983
vn -0.499887 0.0212925 0.865829
v 935.082 6740 -1363.6
vt -0.0103709 0.847634
v 857.79 6740 -1408.22
vt -0.0215395 0.847634
vt -0.0319103 0.00400983
f 1/7/2 7/8/2 8/9/2 2/10/2 

vt 0.0319103 0.0015183
vn 0.499887 0.0212925 0.865829
v 1012.38 6740 -1408.22
vt 0.0215395 0.845143
vt 0.0103709 0.845143
vt 2.77556e-17 0.0015183
f 6/11/3 9/12/3 7/13/3 1/14/3 

vt 0.0319103 -0.00307995
vn 0.999773 0.0212925 8.5536e-16
vt 0.0638206 -0.00307995
v 1012.38 6740 -1497.47
vt 0.0534498 0.840545
vt 0.0422812 0.840545
f 6/15/4 5/16/4 10/17/4 9/18/4 

vt -0.170765 -0.00518667
vn 0.499887 0.0212925 -0.865829
v 935.082 6740 -1542.1
vt -0.181136 0.838438
vt -0.192305 0.838438
vt -0.202676 -0.00518667
f 4/19/5 11/20/5 10/21/5 5/22/5 

vt -0.0638206 -0.00269514
vn -0.499887 0.0212925 -0.865829
v 857.79 6740 -1497.47
vt -0.0741915 0.840929
vt -0.0853601 0.840929
vt -0.0957309 -0.00269514
f 3/23/6 12/24/6 11/25/6 4/26/6 

vt -0.0422812 0.845528
vn -0.999773 0.0212925 -3.19966e-16
vt -0.0534498 0.845528
vt -0.0638206 0.00190311
vt -0.0319103 0.00190311
f 8/27/7 12/28/7 3/29/7 2/30/7 

vt -0.0159552 0.871068
vn 0 1 -0
vt -3.33067e-16 0.843433
vt 0.0319103 0.843433
vt 0.0478655 0.871068
vt 0.0319103 0.898704
vt -3.33067e-16 0.898704
f 8/31/8 7/32/8 9/33/8 10/34/8 11/35/8 12/36/8 

