# Alias OBJ Model File
# Exported from SketchUp, (c) 2000-2012 Trimble Navigation Limited
# File units = millimeters

mtllib keeper.mtl

g Mesh1 Model

usemtl wood1
v 1622.55 0 994.943
vt -0.66764 1.66533e-16
vn -0.052336 0.99863 -0
v 1622.55 0 807.943
vt -0.66764 -0.082232
v 1435.81 -9.78682 807.943
vt -0.585408 -0.082232
v 1435.81 -9.78682 994.943
vt -0.585408 1.66533e-16
f 1/1/1 2/2/1 3/3/1 4/4/1 

vt -0.625994 -1.23315
vn 0.99863 0.052336 -0
vt -0.630298 -1.15103
v 1697.45 -1429.04 994.943
vt -1.25871 -1.18396
v 1697.45 -1429.04 807.943
vt -1.2544 -1.26608
f 2/5/2 1/6/2 5/7/2 6/8/2 

v 1520.88 1940.03 994.943
vt 0.082232 0.854285
vn 0.99863 0.052336 3.48956e-15
vt 0.082232 -5.68989e-16
vt 0.164464 -4.78784e-16
v 1520.88 1940.03 807.943
vt 0.164464 0.854285
v 1520.88 1940.03 912.103
vt 0.11866 0.854285
v 1521.9 1920.63 912.103
vt 0.11866 0.845744
v 1521.9 1920.63 934.103
vt 0.108986 0.845744
v 1520.88 1940.03 934.103
vt 0.108986 0.854285
f 7/9/3 1/10/3 2/11/3 8/12/3 9/13/3 10/14/3 11/15/3 12/16/3 

vt 0.082232 0
vn 0 0 1
vt 0.0375222 0.853114
v 1333.62 1940.03 994.943
vt -0.0448227 0.853114
vt 0.000112696 -0.00430369
f 1/17/4 7/18/4 13/19/4 4/20/4 

usemtl keeper
v 1324.38 2116.36 994.943
vt -0.134109 0.132894
vt -0.127834 0.0131695
vt -0.000690186 0.0131695
v 1511.64 2116.36 994.943
vt -0.00696468 0.132894
f 14/21/4 13/22/4 7/23/4 15/24/4 

v 1324.38 2116.36 807.943
vt -0.484764 0.0838623
vn -0.99863 -0.052336 -9.11973e-16
v 1333.62 1940.03 807.943
vt -0.484764 -0.0360264
vt -0.357794 -0.0360264
vt -0.357794 0.0838623
f 16/25/5 17/26/5 13/27/5 14/28/5 

v 1511.64 2116.36 807.943
vt -0.611734 0.0772081
vn 0 0 -1
vt -0.611734 -0.0426806
f 18/29/6 8/30/6 17/26/6 16/25/6 

usemtl wood1
vn 0.99863 0.052336 2.22854e-14
v 1512.33 2103.11 934.103
vt 0.108986 0.926097
v 1512.33 2103.11 912.103
vt 0.11866 0.926097
vt 0.164464 0.931931
vt 0.082232 0.931931
f 12/16/7 19/31/7 20/32/7 9/13/7 8/12/7 18/33/7 15/34/7 7/9/7 

usemtl keeper
v 8388.19 1927.06 934.103
vt 4.6621 0.00436641
v 8388.78 1940.03 934.103
vt 4.6625 0.0131695
v 8396.64 2113.07 934.103
vt 4.66783 0.130663
v 7841.41 1915.28 934.103
vt 4.29084 -0.00363285
v 7274.96 1752.39 934.103
vt 3.90623 -0.114232
v 6699.47 1625.03 934.103
vt 3.51549 -0.200707
v 6117.19 1533.69 934.103
vt 3.12013 -0.262723
v 5530.35 1478.73 934.103
vt 2.72167 -0.30004
v 4941.23 1460.36 934.103
vt 2.32167 -0.312514
v 4352.11 1478.65 934.103
vt 1.92167 -0.300097
v 3765.26 1533.53 934.103
vt 1.52321 -0.262836
v 3182.96 1624.78 934.103
vt 1.12783 -0.200876
v 2607.46 1752.06 934.103
vt 0.73708 -0.114457
v 2040.99 1914.87 934.103
vt 0.352453 -0.00391164
vt -0.00649326 0.123899
vt 0 0
v 2049.8 1732.62 934.103
vt 0.35844 -0.127659
v 2615.48 1569.99 934.103
vt 0.742525 -0.238079
v 3190.17 1442.85 934.103
vt 1.13273 -0.324407
v 3771.66 1351.68 934.103
vt 1.52755 -0.38631
v 4357.69 1296.83 934.103
vt 1.92545 -0.423549
v 4945.99 1278.53 934.103
vt 2.3249 -0.435978
v 5534.3 1296.83 934.103
vt 2.72435 -0.42355
v 6120.33 1351.67 934.103
vt 3.12226 -0.386314
v 6701.81 1442.84 934.103
vt 3.51708 -0.324413
v 7276.5 1569.98 934.103
vt 3.90728 -0.238086
v 7842.18 1732.6 934.103
vt 4.29137 -0.127668
f 21/35/4 22/36/4 23/37/4 24/38/4 25/39/4 26/40/4 27/41/4 28/42/4 29/43/4 30/44/4 31/45/4 32/46/4 33/47/4 34/48/4 19/49/4 12/23/4 11/50/4 35/51/4 36/52/4 37/53/4 38/54/4 39/55/4 40/56/4 41/57/4 42/58/4 43/59/4 44/60/4 45/61/4 

v 8388.19 1927.06 912.103
vt 4.67702 0.00368879
vn 0.998971 -0.045363 -8.39158e-19
v 8388.78 1940.03 912.103
vt 4.67742 0.0124919
f 46/62/8 47/63/8 22/36/8 21/35/8 

vt -6.72919 0.0131695
vt -6.72879 0.00436641
v 7842.18 1732.6 912.103
vt -6.35806 -0.127668
v 7276.5 1569.98 912.103
vt -5.97397 -0.238086
v 6701.81 1442.84 912.103
vt -5.58376 -0.324413
v 6120.33 1351.67 912.103
vt -5.18894 -0.386314
v 5534.3 1296.83 912.103
vt -4.79104 -0.42355
v 4945.99 1278.53 912.103
vt -4.39159 -0.435978
v 4357.69 1296.83 912.103
vt -3.99214 -0.423549
v 3771.66 1351.68 912.103
vt -3.59424 -0.38631
v 3190.17 1442.85 912.103
vt -3.19942 -0.324407
v 2615.48 1569.99 912.103
vt -2.80921 -0.238079
v 2049.8 1732.62 912.103
vt -2.42513 -0.127659
vt -2.06669 0
vt -2.066 0.0131695
vt -2.06019 0.123899
v 2040.99 1914.87 912.103
vt -2.41914 -0.00391164
v 2607.46 1752.06 912.103
vt -2.80377 -0.114457
v 3182.96 1624.78 912.103
vt -3.19452 -0.200876
v 3765.26 1533.53 912.103
vt -3.58989 -0.262836
v 4352.11 1478.65 912.103
vt -3.98835 -0.300097
v 4941.23 1460.36 912.103
vt -4.38836 -0.312514
v 5530.35 1478.73 912.103
vt -4.78836 -0.30004
v 6117.19 1533.69 912.103
vt -5.18681 -0.262723
v 6699.47 1625.03 912.103
vt -5.58218 -0.200707
v 7274.96 1752.39 912.103
vt -5.97292 -0.114232
v 7841.41 1915.28 912.103
vt -6.35753 -0.00363285
v 8396.64 2113.07 912.103
vt -6.73452 0.130663
f 47/64/6 46/65/6 48/66/6 49/67/6 50/68/6 51/69/6 52/70/6 53/71/6 54/72/6 55/73/6 56/74/6 57/75/6 58/76/6 10/77/6 9/78/6 20/79/6 59/80/6 60/81/6 61/82/6 62/83/6 63/84/6 64/85/6 65/86/6 66/87/6 67/88/6 68/89/6 69/90/6 70/91/6 

usemtl wood1
vt 3.03091 0.854328
vn -0.998971 0.045363 2.80457e-15
vt 3.03065 0.848626
vt 3.02098 0.849065
vt 3.02124 0.854766
v 8388.78 1940.03 807.943
vt 2.97549 0.856844
v 8300.68 0 807.943
vt 2.93675 0.00373029
v 8300.68 0 994.943
vt 3.01889 4.46865e-15
v 8388.78 1940.03 994.943
vt 3.05763 0.853114
f 22/92/9 21/93/9 46/94/9 47/95/9 71/96/9 72/97/9 73/98/9 74/99/9 

usemtl keeper
vt 4.29638 -0.14174
vn 0.306047 -0.952017 -0
vt 4.66711 -0.00970542
vn 0.335505 -0.942038 -0
f 48/100/10 46/101/11 21/35/11 45/61/10 

vt 3.91141 -0.252442
vn 0.24627 -0.969201 -0
vt 4.2955 -0.142024
f 49/102/12 48/103/10 45/61/10 44/60/12 

vt 3.5203 -0.338998
vn 0.18554 -0.982637 -0
vt 3.91051 -0.252671
f 50/104/13 49/105/12 44/60/12 43/59/13 

vt 3.12457 -0.401071
vn 0.124093 -0.992271 -0
vt 3.51939 -0.33917
f 51/106/14 50/107/13 43/59/13 42/58/14 

vt 2.72574 -0.438423
vn 0.0621656 -0.998066 -0
vt 3.12365 -0.401187
f 52/108/15 51/109/14 42/58/14 41/57/15 

vt 2.32537 -0.450908
vn -2.24477e-06 -1 -0
vt 2.72482 -0.438481
f 53/110/16 52/111/15 41/57/15 40/56/16 

vt 1.92499 -0.438479
vn -0.0621701 -0.998066 -0
vt 2.32444 -0.450908
f 54/112/17 53/113/16 40/56/16 39/55/17 

vt 1.52616 -0.401183
vn -0.124097 -0.99227 -0
vt 1.92406 -0.438421
f 55/114/18 54/115/17 39/55/17 38/54/18 

vt 1.13042 -0.339165
vn -0.185545 -0.982636 -0
vt 1.52524 -0.401068
f 56/116/19 55/117/18 38/54/18 37/53/19 

vt 0.739298 -0.252664
vn -0.246274 -0.9692 -0
vt 1.12951 -0.338992
f 57/118/20 56/119/19 37/53/19 36/52/20 

vt 0.354312 -0.142016
vn -0.306051 -0.952015 -0
vt 0.738398 -0.252435
f 58/120/21 57/121/20 36/52/20 35/51/21 

vt -0.00501172 -0.0140718
vn -0.33551 -0.942037 -0
vt 0.353428 -0.141731
f 10/122/22 58/123/21 35/51/21 11/50/22 

vt -1.13243e-14 2.15161e-13
vn -0.99863 -0.052336 1.9363e-18
vt -0.0156074 0.0123878
vt -0.0149172 -0.000781776
f 11/124/23 12/23/23 9/125/23 10/126/23 

vt -0.0214104 0.123117
vn -0.99863 -0.052336 -1.84734e-17
f 20/127/24 9/125/24 12/23/24 19/49/24 

usemtl FrontColor
vt -59.8772 -35.9096
vn -2.33578e-15 -1 -1.27457e-15
vt -59.8772 -36.7757
vt -59.8772 -39.171
vt -52.5049 -39.171
vt -52.5049 -31.8088
vt -59.8772 -31.8088
f 9/128/25 12/129/25 7/130/25 13/131/25 17/132/25 8/133/25 

usemtl wood1
vt -1.83187e-15 1.38778e-17
vn -0.99863 -0.052336 -4.90919e-16
vt -1.77636e-15 0.858594
vt -0.082232 0.858594
vt -0.082232 2.08167e-17
f 4/134/26 13/135/26 17/136/26 3/137/26 

vt -0.082232 1.8735e-16
vt -0.164464 0.854285
vt -0.164464 2.22045e-16
f 3/138/6 17/136/6 8/139/6 2/140/6 

vt -1.26266 -0.00430369
vt -1.34478 0
vt -1.37772 -0.62841
v 1510.7 -1438.83 807.943
vt -1.2956 -0.632714
f 3/141/6 2/142/6 6/143/6 75/144/6 

vt -1.29691 -0.082232
vn 0.052336 -0.99863 -0
vt -1.29691 -4.44089e-16
v 1510.7 -1438.83 994.943
vt -1.37914 -4.44089e-16
vt -1.37914 -0.082232
f 6/145/27 5/146/27 76/147/27 75/148/27 

vt 0.0330463 -0.632714
vt 0.115166 -0.62841
f 1/17/4 4/20/4 76/149/4 5/150/4 

vt -0.638905 0.111749
vn -0.99863 -0.052336 -0
vt -0.634601 0.193868
vt -1.26301 0.226802
vt -1.26732 0.144683
f 4/151/28 3/152/28 75/153/28 76/154/28 

usemtl keeper
vt 0.357464 0.0101605
vn 0.305981 0.952038 -0
vt -0.00148257 0.137971
vn 0.335441 0.942061 -0
f 59/155/29 20/156/30 19/49/30 34/48/29 

vt 0.741206 -0.1001
vn 0.246203 0.969218 -0
vt 0.356579 0.0104448
f 60/157/31 59/158/29 34/48/29 33/47/31 

vt 1.13106 -0.186291
vn 0.185473 0.982649 -0
vt 0.740306 -0.0998713
f 61/159/32 60/160/31 33/47/31 32/46/32 

vt 1.52552 -0.248079
vn 0.124025 0.992279 -0
vt 1.13015 -0.186119
f 62/161/33 61/162/32 32/46/32 31/45/33 

vt 1.92306 -0.285224
vn 0.0620972 0.99807 -0
vt 1.5246 -0.247963
f 63/163/34 62/164/33 31/45/33 30/44/34 

vt 2.32213 -0.297584
vn -7.07868e-05 1 -0
vt 1.92213 -0.285167
f 64/165/35 63/166/34 30/44/34 29/43/35 

vt 2.72121 -0.28511
vn -0.0622385 0.998061 -0
vt 2.3212 -0.297584
f 65/167/36 64/168/35 29/43/35 28/42/36 

vt 3.11873 -0.247851
vn -0.124165 0.992262 -0
vt 2.72028 -0.285168
f 66/169/37 65/170/36 28/42/36 27/41/37 

vt 3.51317 -0.18595
vn -0.185612 0.982623 -0
vt 3.11781 -0.247966
f 67/171/38 66/172/37 27/41/37 26/40/38 

vt 3.903 -0.0996474
vn -0.246341 0.969183 -0
vt 3.51226 -0.186122
f 68/173/39 67/174/38 26/40/38 25/39/39 

vt 4.28671 0.010723
vn -0.306116 0.951994 -0
vt 3.9021 -0.0998763
f 69/175/40 68/176/39 25/39/39 24/38/40 

vt 4.66282 0.144734
vn -0.335574 0.942014 -0
vt 4.28583 0.0104386
f 70/177/41 69/178/40 24/38/40 23/37/41 

vn 0.998971 -0.045363 5.31724e-28
vt 4.68276 0.129985
f 23/37/42 22/36/42 47/63/42 70/179/42 

vn -0.998971 0.045363 -4.14862e-17
v 8397.8 2138.65 994.943
vt 4.66862 0.148035
v 8397.8 2138.65 807.943
vt 4.54178 0.153794
vt 4.53566 0.0189293
vt 4.60631 0.0157211
vt 4.61164 0.133214
vt 4.62657 0.132537
vt 4.62123 0.0150435
f 74/36/43 77/180/43 78/181/43 71/182/43 47/183/43 70/184/43 23/185/43 22/186/43 

v 8575.19 1922.87 994.943
vt 4.78907 0.00152022
v 8584.21 2121.5 994.943
vt 4.79519 0.136385
f 79/187/4 80/188/4 77/180/4 74/36/4 

vt -6.98872 0.130626
vn 0.998971 -0.045363 -1.01109e-15
vt -6.9826 -0.00423952
v 8575.97 1940.03 807.943
vt -6.85629 0.0131695
v 8584.21 2121.5 807.943
vt -6.86188 0.136385
f 80/189/44 79/190/44 81/191/44 82/192/44 

usemtl wood1
v 8487.49 -8.48288 807.943
vt 0.164464 4.10783e-15
vn 0.998971 -0.045363 -1.4217e-15
vt 0.164464 0.857727
vt 0.082232 0.850175
v 8487.49 -8.48288 994.943
vt 0.082232 4.10783e-15
f 83/193/45 81/194/45 79/195/45 84/196/45 

vt 0.246696 2.498e-16
vt 0.246696 0.853993
vt 0.164464 3.05311e-16
f 72/197/6 71/198/6 81/194/6 83/199/6 

usemtl keeper
vt -6.73531 0.148035
f 82/192/6 81/191/6 71/64/6 78/200/6 

usemtl wood1
v 8589.69 2242.2 807.943
vt 0.164464 0.990742
vt 0.164464 0.93761
vt 0.246696 0.941428
v 8402.88 2250.68 807.943
vt 0.246696 0.990742
f 85/201/6 82/202/6 78/203/6 86/204/6 

v 8589.69 2242.2 994.943
vt 0.082232 0.990742
vn 0.998971 -0.045363 3.50855e-16
vt 0.082232 0.93761
f 87/205/46 80/206/46 82/202/46 85/201/46 

v 8402.88 2250.68 994.943
vt 3.06384 0.989722
vt 3.0616 0.940459
vt 3.14357 0.932915
vt 3.14598 0.985992
f 88/207/4 77/208/4 80/209/4 87/210/4 

vt 2.98169 0.993452
vn -0.998971 0.045363 -8.62272e-17
vt 2.97945 0.94419
f 86/211/47 78/212/47 77/208/47 88/207/47 

usemtl FrontColor
vt 31.8088 -328.884
vn -0.0916499 -0.995791 9.61099e-15
vt 39.171 -328.884
vt 39.171 -321.514
vt 31.8088 -321.514
f 82/213/48 80/214/48 77/215/48 78/216/48 

usemtl wood1
vt 0.164464 1.07297
vn 0.045363 0.998971 -0
vt 0.246696 1.07297
f 87/217/49 85/201/49 86/204/49 88/218/49 

vt -3.81199 -0.875039
vt -3.81199 -0.792807
vt -3.89423 -0.792807
vt -3.89423 -0.875039
f 84/219/49 83/220/49 72/221/49 73/222/49 

vt -3.63895 3.37694
vn 0.998971 -0.045363 -0
vt -3.64268 3.2948
v 8408.89 -1739.32 994.943
vt -2.88156 3.26023
v 8408.89 -1739.32 807.943
vt -2.87783 3.34238
f 83/223/50 84/224/50 89/225/50 90/226/50 

vt 3.10104 -0.00373029
vt 3.01889 0
v 8222.08 -1730.84 994.943
vt 2.98433 -0.761123
vt 3.06648 -0.764854
f 84/227/4 73/228/4 91/229/4 89/230/4 

vt 3.13961 0.845569
f 84/227/4 79/231/4 74/99/4 73/228/4 

vt 3.01889 2.77556e-17
vn -0.998971 0.045363 -0
v 8222.08 -1730.84 807.943
vt 2.90218 -0.757393
f 73/232/51 72/97/51 92/233/51 91/229/51 

vt -4.28145 0
vt -4.36359 -0.00373029
vt -4.32903 -0.764854
vt -4.24688 -0.761123
f 72/234/6 83/235/6 90/236/6 92/237/6 

vt 3.06275 -0.847001
vn -0.045363 -0.998971 -0
vt 2.9806 -0.843271
f 90/238/52 89/230/52 91/229/52 92/239/52 

v 1504.64 2249.91 994.943
vn 0.99863 0.052336 -9.30184e-31
v 1504.64 2249.91 807.943
f 93/205/53 15/34/53 18/33/53 94/201/53 

v 1317.9 2240.13 994.943
vt -0.0517387 0.98508
vt -0.0488863 0.930653
vt 0.0334585 0.930653
vt 0.0303806 0.989384
f 95/240/4 14/241/4 15/242/4 93/243/4 

v 1317.9 2240.13 807.943
vt -0.082232 0.990742
vn -0.99863 -0.052336 -4.31974e-16
vt -0.082232 0.93624
vt -1.72085e-15 0.93624
vt -1.72085e-15 0.990742
f 96/244/54 16/245/54 14/246/54 95/247/54 

vt -0.164464 0.990742
vt -0.164464 0.931931
f 94/248/6 18/249/6 16/245/6 96/244/6 

usemtl FrontColor
vt -59.5134 -31.8088
vn -9.638e-16 -1 9.65122e-16
vt -59.5134 -39.171
vt -52.1411 -39.171
vt -52.1411 -31.8088
f 18/250/55 15/251/55 14/252/55 16/253/55 

usemtl wood1
vt 0.082232 1.07297
f 93/205/1 94/201/1 96/217/1 95/254/1 

